M48
; DRILL file {KiCad (6.0.0)} date Sat Feb  5 12:05:07 2022
; FORMAT={-:-/ absolute / metric / decimal}
; #@! TF.CreationDate,2022-02-05T12:05:07+01:00
; #@! TF.GenerationSoftware,Kicad,Pcbnew,(6.0.0)
; #@! TF.FileFunction,NonPlated,1,2,NPTH
FMAT,2
METRIC
; #@! TA.AperFunction,NonPlated,NPTH,ComponentDrill
T1C0.900
; #@! TA.AperFunction,NonPlated,NPTH,ComponentDrill
T2C1.702
; #@! TA.AperFunction,NonPlated,NPTH,ComponentDrill
T3C3.000
; #@! TA.AperFunction,NonPlated,NPTH,ComponentDrill
T4C3.429
%
G90
G05
T1
X98.0Y-2.6
X98.0Y-5.6
T2
X-5.5Y51.0
X-5.5Y34.0
X-5.5Y17.0
X-5.5Y0.0
X5.5Y51.0
X5.5Y34.0
X5.5Y17.0
X5.5Y0.0
X12.5Y59.5
X12.5Y42.5
X12.5Y25.5
X12.5Y8.5
X23.5Y59.5
X23.5Y42.5
X23.5Y25.5
X23.5Y8.5
X30.5Y52.7
X30.5Y35.7
X30.5Y18.7
X30.5Y1.7
X41.5Y52.7
X41.5Y35.7
X41.5Y18.7
X41.5Y1.7
X48.5Y54.4
X48.5Y37.4
X48.5Y20.4
X48.5Y3.4
X48.5Y-13.6
X59.5Y54.4
X59.5Y37.4
X59.5Y20.4
X59.5Y3.4
X59.5Y-13.6
X66.5Y53.9
X66.5Y36.9
X66.5Y19.9
X66.5Y2.9
X68.581Y-14.795
X77.5Y53.9
X77.5Y36.9
X77.5Y19.9
X77.5Y2.9
X79.206Y-17.643
X89.44Y-28.561
X94.94Y-19.034
T3
X0.0Y56.95
X0.0Y39.95
X0.0Y22.95
X0.0Y5.95
X5.0Y54.75
X5.0Y37.75
X5.0Y20.75
X5.0Y3.75
X18.0Y65.45
X18.0Y48.45
X18.0Y31.45
X18.0Y14.45
X23.0Y63.25
X23.0Y46.25
X23.0Y29.25
X23.0Y12.25
X36.0Y58.65
X36.0Y41.65
X36.0Y24.65
X36.0Y7.65
X41.0Y56.45
X41.0Y39.45
X41.0Y22.45
X41.0Y5.45
X54.0Y60.35
X54.0Y43.35
X54.0Y26.35
X54.0Y9.35
X54.0Y-7.65
X59.0Y58.15
X59.0Y41.15
X59.0Y24.15
X59.0Y7.15
X59.0Y-9.85
X72.0Y59.85
X72.0Y42.85
X72.0Y25.85
X72.0Y8.85
X75.433Y-10.472
X77.0Y57.65
X77.0Y40.65
X77.0Y23.65
X77.0Y6.65
X79.693Y-13.891
X87.037Y-20.823
X91.442Y-17.592
T4
X0.0Y51.0
X0.0Y34.0
X0.0Y17.0
X0.0Y0.0
X18.0Y59.5
X18.0Y42.5
X18.0Y25.5
X18.0Y8.5
X36.0Y52.7
X36.0Y35.7
X36.0Y18.7
X36.0Y1.7
X54.0Y54.4
X54.0Y37.4
X54.0Y20.4
X54.0Y3.4
X54.0Y-13.6
X72.0Y53.9
X72.0Y36.9
X72.0Y19.9
X72.0Y2.9
X73.893Y-16.219
X92.19Y-23.798
T0
M30
