M48
; DRILL file {KiCad (6.0.0)} date Sat Feb  5 12:05:07 2022
; FORMAT={-:-/ absolute / metric / decimal}
; #@! TF.CreationDate,2022-02-05T12:05:07+01:00
; #@! TF.GenerationSoftware,Kicad,Pcbnew,(6.0.0)
; #@! TF.FileFunction,Plated,1,2,PTH
FMAT,2
METRIC
; #@! TA.AperFunction,Plated,PTH,ComponentDrill
T1C0.305
; #@! TA.AperFunction,Plated,PTH,ViaDrill
T2C0.400
; #@! TA.AperFunction,Plated,PTH,ComponentDrill
T3C0.991
; #@! TA.AperFunction,Plated,PTH,ComponentDrill
T4C1.092
%
G90
G05
T1
X90.4Y35.378
X92.6Y35.378
T2
X10.668Y32.766
X28.956Y28.194
X47.752Y12.446
X64.77Y10.922
X89.916Y-1.778
X90.932Y-3.81
X94.488Y18.542
X94.488Y16.002
T3
X-3.81Y46.0
X-3.81Y29.0
X-3.81Y12.0
X-3.81Y-5.0
X3.81Y46.0
X3.81Y29.0
X3.81Y12.0
X3.81Y-5.0
X14.19Y54.5
X14.19Y37.5
X14.19Y20.5
X14.19Y3.5
X21.81Y54.5
X21.81Y37.5
X21.81Y20.5
X21.81Y3.5
X32.19Y47.7
X32.19Y30.7
X32.19Y13.7
X32.19Y-3.3
X39.81Y47.7
X39.81Y30.7
X39.81Y13.7
X39.81Y-3.3
X50.19Y49.4
X50.19Y32.4
X50.19Y15.4
X50.19Y-1.6
X50.19Y-18.6
X57.81Y49.4
X57.81Y32.4
X57.81Y15.4
X57.81Y-1.6
X57.81Y-18.6
X68.19Y48.9
X68.19Y31.9
X68.19Y14.9
X68.19Y-2.1
X68.919Y-20.063
X75.81Y48.9
X75.81Y31.9
X75.81Y14.9
X75.81Y-2.1
X76.279Y-22.035
X94.615Y-29.597
X98.425Y-22.998
T4
X83.88Y30.87
X83.88Y28.33
X83.88Y25.79
X83.88Y23.25
X83.88Y20.71
X83.88Y18.17
X83.88Y15.63
X83.88Y13.09
X83.88Y10.55
X83.88Y8.01
X83.88Y5.47
X83.88Y2.93
X99.12Y30.87
X99.12Y28.33
X99.12Y25.79
X99.12Y23.25
X99.12Y20.71
X99.12Y18.17
X99.12Y15.63
X99.12Y13.09
X99.12Y10.55
X99.12Y8.01
X99.12Y5.47
X99.12Y2.93
T0
M30
