%TF.GenerationSoftware,KiCad,Pcbnew,(6.0.0)*%
%TF.CreationDate,2022-02-05T12:05:09+01:00*%
%TF.ProjectId,samoklava2_pcb,73616d6f-6b6c-4617-9661-325f7063622e,v1.0.0*%
%TF.SameCoordinates,Original*%
%TF.FileFunction,Soldermask,Bot*%
%TF.FilePolarity,Negative*%
%FSLAX46Y46*%
G04 Gerber Fmt 4.6, Leading zero omitted, Abs format (unit mm)*
G04 Created by KiCad (PCBNEW (6.0.0)) date 2022-02-05 12:05:09*
%MOMM*%
%LPD*%
G01*
G04 APERTURE LIST*
G04 Aperture macros list*
%AMRotRect*
0 Rectangle, with rotation*
0 The origin of the aperture is its center*
0 $1 length*
0 $2 width*
0 $3 Rotation angle, in degrees counterclockwise*
0 Add horizontal line*
21,1,$1,$2,0,0,$3*%
G04 Aperture macros list end*
%TA.AperFunction,Profile*%
%ADD10C,0.150000*%
%TD*%
%ADD11C,1.000000*%
%ADD12C,1.701800*%
%ADD13C,3.000000*%
%ADD14C,3.429000*%
%ADD15R,2.600000X2.600000*%
%ADD16C,1.905000*%
%ADD17RotRect,0.900000X1.200000X345.000000*%
%ADD18RotRect,1.778000X1.778000X345.000000*%
%ADD19R,0.900000X1.200000*%
%ADD20R,1.778000X1.778000*%
%ADD21R,1.752600X1.752600*%
%ADD22C,1.752600*%
%ADD23RotRect,2.600000X2.600000X345.000000*%
%ADD24RotRect,0.900000X1.200000X60.000000*%
%ADD25RotRect,1.778000X1.778000X60.000000*%
%ADD26RotRect,2.600000X2.600000X60.000000*%
G04 APERTURE END LIST*
D10*
X101000000Y33900000D02*
G75*
G03*
X99000000Y35900000I-1999999J1D01*
G01*
X101000000Y-12141090D02*
G75*
G03*
X102000000Y-13873141I2000000J0D01*
G01*
X-9000000Y-6500000D02*
G75*
G03*
X-7000000Y-8500000I1999999J-1D01*
G01*
X-9000000Y58232663D02*
X-9000000Y-6500000D01*
X8594465Y67808497D02*
X-7854013Y60041161D01*
X44745899Y62971995D02*
X27267341Y67924253D01*
X46395588Y-22100000D02*
X62441218Y-22100000D01*
X80027025Y62426662D02*
X45264080Y62896431D01*
X40481569Y-9809869D02*
X44518431Y-20790131D01*
X78060291Y-31227935D02*
G75*
G03*
X78096935Y-31249615I1031524J1701695D01*
G01*
X-7000000Y-8500000D02*
X38604412Y-8500000D01*
X27267341Y67924253D02*
G75*
G03*
X26722136Y68000000I-545201J-1924212D01*
G01*
X78096934Y-31249614D02*
X91068878Y-38738969D01*
X26722135Y68000000D02*
X9448477Y68000000D01*
X44518431Y-20790131D02*
G75*
G03*
X46395588Y-22100000I1877157J690130D01*
G01*
X10000000Y8500000D02*
G75*
G03*
X10000000Y8500000I-1000000J0D01*
G01*
X63477862Y-22389629D02*
X78060291Y-31227935D01*
X64000000Y11400000D02*
G75*
G03*
X64000000Y11400000I-1000000J0D01*
G01*
X40481569Y-9809869D02*
G75*
G03*
X38604412Y-8500000I-1877157J-690130D01*
G01*
X99000000Y35900000D02*
X84000000Y35900000D01*
X101000000Y-12141090D02*
X101000000Y33900000D01*
X9448477Y68000000D02*
G75*
G03*
X8594464Y67808497I2J-2000006D01*
G01*
X82000000Y37900000D02*
X82000000Y60426844D01*
X10000000Y51000000D02*
G75*
G03*
X10000000Y51000000I-1000000J0D01*
G01*
X-7854013Y60041161D02*
G75*
G03*
X-9000001Y58232663I854012J-1808497D01*
G01*
X93800928Y-38006919D02*
X105300929Y-18088334D01*
X63477862Y-22389629D02*
G75*
G03*
X62441218Y-22100000I-1036646J-1710378D01*
G01*
X64000000Y45900000D02*
G75*
G03*
X64000000Y45900000I-1000000J0D01*
G01*
X105300929Y-18088334D02*
G75*
G03*
X104568878Y-15356283I-1732051J1000000D01*
G01*
X102000000Y-13873141D02*
X104568878Y-15356284D01*
X44745899Y62971995D02*
G75*
G03*
X45264080Y62896431I545202J1924232D01*
G01*
X82000001Y60426844D02*
G75*
G03*
X80027025Y62426661I-2000001J-1D01*
G01*
X91068878Y-38738969D02*
G75*
G03*
X93800928Y-38006919I1000000J1732050D01*
G01*
X82000000Y37900000D02*
G75*
G03*
X84000000Y35900000I1999999J-1D01*
G01*
D11*
%TO.C,T1*%
X98000000Y-2600000D03*
X98000000Y-5600000D03*
%TD*%
D12*
%TO.C,S9*%
X41500000Y1700000D03*
D13*
X36000000Y7650000D03*
X41000000Y5450000D03*
D14*
X36000000Y1700000D03*
D12*
X30500000Y1700000D03*
D15*
X32725000Y7650000D03*
X44275000Y5450000D03*
%TD*%
D12*
%TO.C,S6*%
X23500000Y25500000D03*
X12500000Y25500000D03*
D13*
X18000000Y31450000D03*
X23000000Y29250000D03*
D14*
X18000000Y25500000D03*
D15*
X14725000Y31450000D03*
X26275000Y29250000D03*
%TD*%
D14*
%TO.C,S8*%
X18000000Y59500000D03*
D12*
X23500000Y59500000D03*
D13*
X23000000Y63250000D03*
X18000000Y65450000D03*
D12*
X12500000Y59500000D03*
D15*
X14725000Y65450000D03*
X26275000Y63250000D03*
%TD*%
D14*
%TO.C,S4*%
X0Y51000000D03*
D13*
X0Y56950000D03*
X5000000Y54750000D03*
D12*
X5500000Y51000000D03*
X-5500000Y51000000D03*
D15*
X-3275000Y56950000D03*
X8275000Y54750000D03*
%TD*%
D16*
%TO.C,D22*%
X76279376Y-22034732D03*
D17*
X71005421Y-20621580D03*
D18*
X68919022Y-20062530D03*
D17*
X74192977Y-21475682D03*
%TD*%
D19*
%TO.C,D15*%
X52350000Y32400000D03*
D16*
X57810000Y32400000D03*
D20*
X50190000Y32400000D03*
D19*
X55650000Y32400000D03*
%TD*%
%TO.C,D6*%
X16350000Y20500000D03*
D16*
X21810000Y20500000D03*
D20*
X14190000Y20500000D03*
D19*
X19650000Y20500000D03*
%TD*%
D21*
%TO.C,MCU1*%
X83880000Y30870000D03*
D22*
X83880000Y28330000D03*
X83880000Y25790000D03*
X83880000Y23250000D03*
X83880000Y20710000D03*
X83880000Y18170000D03*
X83880000Y15630000D03*
X83880000Y13090000D03*
X83880000Y10550000D03*
X83880000Y8010000D03*
X83880000Y5470000D03*
X83880000Y2930000D03*
X99120000Y30870000D03*
X99120000Y28330000D03*
X99120000Y25790000D03*
X99120000Y23250000D03*
X99120000Y20710000D03*
X99120000Y18170000D03*
X99120000Y15630000D03*
X99120000Y13090000D03*
X99120000Y10550000D03*
X99120000Y8010000D03*
X99120000Y5470000D03*
X99120000Y2930000D03*
%TD*%
D16*
%TO.C,D10*%
X39810000Y13700000D03*
D19*
X34350000Y13700000D03*
D20*
X32190000Y13700000D03*
D19*
X37650000Y13700000D03*
%TD*%
D13*
%TO.C,S21*%
X54000000Y-7650000D03*
D14*
X54000000Y-13600000D03*
D13*
X59000000Y-9850000D03*
D12*
X59500000Y-13600000D03*
X48500000Y-13600000D03*
D15*
X50725000Y-7650000D03*
X62275000Y-9850000D03*
%TD*%
D16*
%TO.C,D16*%
X57810000Y49400000D03*
D19*
X52350000Y49400000D03*
D20*
X50190000Y49400000D03*
D19*
X55650000Y49400000D03*
%TD*%
D16*
%TO.C,D11*%
X39810000Y30700000D03*
D19*
X34350000Y30700000D03*
D20*
X32190000Y30700000D03*
D19*
X37650000Y30700000D03*
%TD*%
D14*
%TO.C,S19*%
X72000000Y36900000D03*
D12*
X66500000Y36900000D03*
X77500000Y36900000D03*
D13*
X72000000Y42850000D03*
X77000000Y40650000D03*
D15*
X68725000Y42850000D03*
X80275000Y40650000D03*
%TD*%
D19*
%TO.C,D17*%
X70350000Y-2100000D03*
D16*
X75810000Y-2100000D03*
D20*
X68190000Y-2100000D03*
D19*
X73650000Y-2100000D03*
%TD*%
D13*
%TO.C,S15*%
X59000000Y41150000D03*
D12*
X48500000Y37400000D03*
D13*
X54000000Y43350000D03*
D12*
X59500000Y37400000D03*
D14*
X54000000Y37400000D03*
D15*
X50725000Y43350000D03*
X62275000Y41150000D03*
%TD*%
D13*
%TO.C,S1*%
X5000000Y3750000D03*
D14*
X0Y0D03*
D12*
X-5500000Y0D03*
X5500000Y0D03*
D13*
X0Y5950000D03*
D15*
X-3275000Y5950000D03*
X8275000Y3750000D03*
%TD*%
D12*
%TO.C,S22*%
X68580702Y-14795497D03*
D13*
X79693495Y-13890875D03*
X75433267Y-10471743D03*
D12*
X79205886Y-17642507D03*
D14*
X73893294Y-16219002D03*
D23*
X72269860Y-9624111D03*
X82856902Y-14738508D03*
%TD*%
D19*
%TO.C,D20*%
X70350000Y48900000D03*
D16*
X75810000Y48900000D03*
D19*
X73650000Y48900000D03*
D20*
X68190000Y48900000D03*
%TD*%
D12*
%TO.C,S13*%
X48500000Y3400000D03*
D13*
X54000000Y9350000D03*
D14*
X54000000Y3400000D03*
D12*
X59500000Y3400000D03*
D13*
X59000000Y7150000D03*
D15*
X50725000Y9350000D03*
X62275000Y7150000D03*
%TD*%
D12*
%TO.C,S3*%
X-5500000Y34000000D03*
D13*
X0Y39950000D03*
X5000000Y37750000D03*
D14*
X0Y34000000D03*
D12*
X5500000Y34000000D03*
D15*
X-3275000Y39950000D03*
X8275000Y37750000D03*
%TD*%
D19*
%TO.C,D18*%
X70350000Y14900000D03*
D16*
X75810000Y14900000D03*
D19*
X73650000Y14900000D03*
D20*
X68190000Y14900000D03*
%TD*%
D19*
%TO.C,D7*%
X16350000Y37500000D03*
D16*
X21810000Y37500000D03*
D20*
X14190000Y37500000D03*
D19*
X19650000Y37500000D03*
%TD*%
D16*
%TO.C,D13*%
X57810000Y-1600000D03*
D19*
X52350000Y-1600000D03*
D20*
X50190000Y-1600000D03*
D19*
X55650000Y-1600000D03*
%TD*%
%TO.C,D4*%
X-1650000Y46000000D03*
D16*
X3810000Y46000000D03*
D19*
X1650000Y46000000D03*
D20*
X-3810000Y46000000D03*
%TD*%
D16*
%TO.C,D23*%
X98424840Y-22998070D03*
D24*
X95694840Y-27726569D03*
X97344840Y-24868685D03*
D25*
X94614840Y-29597184D03*
%TD*%
D16*
%TO.C,D21*%
X57810000Y-18600000D03*
D19*
X52350000Y-18600000D03*
X55650000Y-18600000D03*
D20*
X50190000Y-18600000D03*
%TD*%
D16*
%TO.C,D14*%
X57810000Y15400000D03*
D19*
X52350000Y15400000D03*
X55650000Y15400000D03*
D20*
X50190000Y15400000D03*
%TD*%
D13*
%TO.C,S7*%
X23000000Y46250000D03*
D12*
X23500000Y42500000D03*
X12500000Y42500000D03*
D13*
X18000000Y48450000D03*
D14*
X18000000Y42500000D03*
D15*
X14725000Y48450000D03*
X26275000Y46250000D03*
%TD*%
D14*
%TO.C,S11*%
X36000000Y35700000D03*
D13*
X36000000Y41650000D03*
X41000000Y39450000D03*
D12*
X41500000Y35700000D03*
X30500000Y35700000D03*
D15*
X32725000Y41650000D03*
X44275000Y39450000D03*
%TD*%
D16*
%TO.C,D9*%
X39810000Y-3300000D03*
D19*
X34350000Y-3300000D03*
D20*
X32190000Y-3300000D03*
D19*
X37650000Y-3300000D03*
%TD*%
D13*
%TO.C,S12*%
X41000000Y56450000D03*
X36000000Y58650000D03*
D12*
X41500000Y52700000D03*
X30500000Y52700000D03*
D14*
X36000000Y52700000D03*
D15*
X32725000Y58650000D03*
X44275000Y56450000D03*
%TD*%
D16*
%TO.C,D12*%
X39810000Y47700000D03*
D19*
X34350000Y47700000D03*
D20*
X32190000Y47700000D03*
D19*
X37650000Y47700000D03*
%TD*%
D13*
%TO.C,S2*%
X0Y22950000D03*
D12*
X5500000Y17000000D03*
D14*
X0Y17000000D03*
D12*
X-5500000Y17000000D03*
D13*
X5000000Y20750000D03*
D15*
X-3275000Y22950000D03*
X8275000Y20750000D03*
%TD*%
D16*
%TO.C,D1*%
X3810000Y-5000000D03*
D19*
X-1650000Y-5000000D03*
X1650000Y-5000000D03*
D20*
X-3810000Y-5000000D03*
%TD*%
D13*
%TO.C,S23*%
X87036862Y-20822627D03*
X91442118Y-17592500D03*
D12*
X94939713Y-19034487D03*
D14*
X92189713Y-23797627D03*
D12*
X89439713Y-28560767D03*
D26*
X85399362Y-23658860D03*
X93079618Y-14756267D03*
%TD*%
D19*
%TO.C,D8*%
X16350000Y54500000D03*
D16*
X21810000Y54500000D03*
D20*
X14190000Y54500000D03*
D19*
X19650000Y54500000D03*
%TD*%
D16*
%TO.C,D5*%
X21810000Y3500000D03*
D19*
X16350000Y3500000D03*
D20*
X14190000Y3500000D03*
D19*
X19650000Y3500000D03*
%TD*%
%TO.C,D19*%
X70350000Y31900000D03*
D16*
X75810000Y31900000D03*
D19*
X73650000Y31900000D03*
D20*
X68190000Y31900000D03*
%TD*%
D12*
%TO.C,S5*%
X12500000Y8500000D03*
D13*
X23000000Y12250000D03*
D14*
X18000000Y8500000D03*
D12*
X23500000Y8500000D03*
D13*
X18000000Y14450000D03*
D15*
X14725000Y14450000D03*
X26275000Y12250000D03*
%TD*%
D12*
%TO.C,S17*%
X66500000Y2900000D03*
X77500000Y2900000D03*
D14*
X72000000Y2900000D03*
D13*
X72000000Y8850000D03*
X77000000Y6650000D03*
D15*
X68725000Y8850000D03*
X80275000Y6650000D03*
%TD*%
D13*
%TO.C,S20*%
X77000000Y57650000D03*
X72000000Y59850000D03*
D12*
X77500000Y53900000D03*
D14*
X72000000Y53900000D03*
D12*
X66500000Y53900000D03*
D15*
X68725000Y59850000D03*
X80275000Y57650000D03*
%TD*%
D12*
%TO.C,S10*%
X41500000Y18700000D03*
D13*
X41000000Y22450000D03*
X36000000Y24650000D03*
D14*
X36000000Y18700000D03*
D12*
X30500000Y18700000D03*
D15*
X32725000Y24650000D03*
X44275000Y22450000D03*
%TD*%
D13*
%TO.C,S16*%
X54000000Y60350000D03*
D12*
X59500000Y54400000D03*
D13*
X59000000Y58150000D03*
D14*
X54000000Y54400000D03*
D12*
X48500000Y54400000D03*
D15*
X50725000Y60350000D03*
X62275000Y58150000D03*
%TD*%
D12*
%TO.C,S14*%
X59500000Y20400000D03*
D14*
X54000000Y20400000D03*
D13*
X59000000Y24150000D03*
D12*
X48500000Y20400000D03*
D13*
X54000000Y26350000D03*
D15*
X50725000Y26350000D03*
X62275000Y24150000D03*
%TD*%
D16*
%TO.C,D2*%
X3810000Y12000000D03*
D19*
X-1650000Y12000000D03*
X1650000Y12000000D03*
D20*
X-3810000Y12000000D03*
%TD*%
D14*
%TO.C,S18*%
X72000000Y19900000D03*
D12*
X66500000Y19900000D03*
X77500000Y19900000D03*
D13*
X77000000Y23650000D03*
X72000000Y25850000D03*
D15*
X68725000Y25850000D03*
X80275000Y23650000D03*
%TD*%
D19*
%TO.C,D3*%
X-1650000Y29000000D03*
D16*
X3810000Y29000000D03*
D19*
X1650000Y29000000D03*
D20*
X-3810000Y29000000D03*
%TD*%
M02*
