%TF.GenerationSoftware,KiCad,Pcbnew,(6.0.0)*%
%TF.CreationDate,2022-02-05T12:05:09+01:00*%
%TF.ProjectId,samoklava2_pcb,73616d6f-6b6c-4617-9661-325f7063622e,v1.0.0*%
%TF.SameCoordinates,Original*%
%TF.FileFunction,Legend,Bot*%
%TF.FilePolarity,Positive*%
%FSLAX46Y46*%
G04 Gerber Fmt 4.6, Leading zero omitted, Abs format (unit mm)*
G04 Created by KiCad (PCBNEW (6.0.0)) date 2022-02-05 12:05:09*
%MOMM*%
%LPD*%
G01*
G04 APERTURE LIST*
%TA.AperFunction,Profile*%
%ADD10C,0.150000*%
%TD*%
%ADD11C,0.100000*%
%ADD12R,1.752600X1.752600*%
%ADD13C,1.752600*%
G04 APERTURE END LIST*
D10*
X101000000Y33900000D02*
G75*
G03*
X99000000Y35900000I-1999999J1D01*
G01*
X101000000Y-12141090D02*
G75*
G03*
X102000000Y-13873141I2000000J0D01*
G01*
X-9000000Y-6500000D02*
G75*
G03*
X-7000000Y-8500000I1999999J-1D01*
G01*
X-9000000Y58232663D02*
X-9000000Y-6500000D01*
X8594465Y67808497D02*
X-7854013Y60041161D01*
X44745899Y62971995D02*
X27267341Y67924253D01*
X46395588Y-22100000D02*
X62441218Y-22100000D01*
X80027025Y62426662D02*
X45264080Y62896431D01*
X40481569Y-9809869D02*
X44518431Y-20790131D01*
X78060291Y-31227935D02*
G75*
G03*
X78096935Y-31249615I1031524J1701695D01*
G01*
X-7000000Y-8500000D02*
X38604412Y-8500000D01*
X27267341Y67924253D02*
G75*
G03*
X26722136Y68000000I-545201J-1924212D01*
G01*
X78096934Y-31249614D02*
X91068878Y-38738969D01*
X26722135Y68000000D02*
X9448477Y68000000D01*
X44518431Y-20790131D02*
G75*
G03*
X46395588Y-22100000I1877157J690130D01*
G01*
X10000000Y8500000D02*
G75*
G03*
X10000000Y8500000I-1000000J0D01*
G01*
X63477862Y-22389629D02*
X78060291Y-31227935D01*
X64000000Y11400000D02*
G75*
G03*
X64000000Y11400000I-1000000J0D01*
G01*
X40481569Y-9809869D02*
G75*
G03*
X38604412Y-8500000I-1877157J-690130D01*
G01*
X99000000Y35900000D02*
X84000000Y35900000D01*
X101000000Y-12141090D02*
X101000000Y33900000D01*
X9448477Y68000000D02*
G75*
G03*
X8594464Y67808497I2J-2000006D01*
G01*
X82000000Y37900000D02*
X82000000Y60426844D01*
X10000000Y51000000D02*
G75*
G03*
X10000000Y51000000I-1000000J0D01*
G01*
X-7854013Y60041161D02*
G75*
G03*
X-9000001Y58232663I854012J-1808497D01*
G01*
X93800928Y-38006919D02*
X105300929Y-18088334D01*
X63477862Y-22389629D02*
G75*
G03*
X62441218Y-22100000I-1036646J-1710378D01*
G01*
X64000000Y45900000D02*
G75*
G03*
X64000000Y45900000I-1000000J0D01*
G01*
X105300929Y-18088334D02*
G75*
G03*
X104568878Y-15356283I-1732051J1000000D01*
G01*
X102000000Y-13873141D02*
X104568878Y-15356284D01*
X44745899Y62971995D02*
G75*
G03*
X45264080Y62896431I545202J1924232D01*
G01*
X82000001Y60426844D02*
G75*
G03*
X80027025Y62426661I-2000001J-1D01*
G01*
X91068878Y-38738969D02*
G75*
G03*
X93800928Y-38006919I1000000J1732050D01*
G01*
X82000000Y37900000D02*
G75*
G03*
X84000000Y35900000I1999999J-1D01*
G01*
D11*
%TO.C,D22*%
X72261125Y-20958044D02*
X72403475Y-20426785D01*
X72944208Y-20726965D02*
X72737153Y-21499706D01*
X72737153Y-21499706D02*
X72261125Y-20958044D01*
X72261125Y-20958044D02*
X72944208Y-20726965D01*
X71874755Y-20854517D02*
X72261125Y-20958044D01*
X72261125Y-20958044D02*
X72118774Y-21489304D01*
X72840680Y-21113336D02*
X73323643Y-21242745D01*
%TO.C,D15*%
X54250000Y32800000D02*
X54250000Y32000000D01*
X54250000Y32400000D02*
X54750000Y32400000D01*
X53250000Y32400000D02*
X53650000Y32400000D01*
X53650000Y32400000D02*
X53650000Y32950000D01*
X53650000Y32400000D02*
X53650000Y31850000D01*
X53650000Y32400000D02*
X54250000Y32800000D01*
X54250000Y32000000D02*
X53650000Y32400000D01*
%TO.C,D6*%
X17650000Y20500000D02*
X18250000Y20900000D01*
X17650000Y20500000D02*
X17650000Y19950000D01*
X18250000Y20500000D02*
X18750000Y20500000D01*
X18250000Y20100000D02*
X17650000Y20500000D01*
X17650000Y20500000D02*
X17650000Y21050000D01*
X18250000Y20900000D02*
X18250000Y20100000D01*
X17250000Y20500000D02*
X17650000Y20500000D01*
%TO.C,D10*%
X36250000Y13300000D02*
X35650000Y13700000D01*
X36250000Y13700000D02*
X36750000Y13700000D01*
X35650000Y13700000D02*
X36250000Y14100000D01*
X35250000Y13700000D02*
X35650000Y13700000D01*
X35650000Y13700000D02*
X35650000Y13150000D01*
X35650000Y13700000D02*
X35650000Y14250000D01*
X36250000Y14100000D02*
X36250000Y13300000D01*
%TO.C,D16*%
X54250000Y49400000D02*
X54750000Y49400000D01*
X54250000Y49800000D02*
X54250000Y49000000D01*
X53250000Y49400000D02*
X53650000Y49400000D01*
X53650000Y49400000D02*
X53650000Y49950000D01*
X54250000Y49000000D02*
X53650000Y49400000D01*
X53650000Y49400000D02*
X53650000Y48850000D01*
X53650000Y49400000D02*
X54250000Y49800000D01*
%TO.C,D11*%
X36250000Y30300000D02*
X35650000Y30700000D01*
X35250000Y30700000D02*
X35650000Y30700000D01*
X36250000Y31100000D02*
X36250000Y30300000D01*
X35650000Y30700000D02*
X35650000Y31250000D01*
X35650000Y30700000D02*
X35650000Y30150000D01*
X36250000Y30700000D02*
X36750000Y30700000D01*
X35650000Y30700000D02*
X36250000Y31100000D01*
%TO.C,D17*%
X72250000Y-2500000D02*
X71650000Y-2100000D01*
X72250000Y-1700000D02*
X72250000Y-2500000D01*
X71650000Y-2100000D02*
X72250000Y-1700000D01*
X72250000Y-2100000D02*
X72750000Y-2100000D01*
X71250000Y-2100000D02*
X71650000Y-2100000D01*
X71650000Y-2100000D02*
X71650000Y-1550000D01*
X71650000Y-2100000D02*
X71650000Y-2650000D01*
%TO.C,D20*%
X72250000Y48900000D02*
X72750000Y48900000D01*
X71650000Y48900000D02*
X71650000Y48350000D01*
X72250000Y48500000D02*
X71650000Y48900000D01*
X71650000Y48900000D02*
X71650000Y49450000D01*
X72250000Y49300000D02*
X72250000Y48500000D01*
X71650000Y48900000D02*
X72250000Y49300000D01*
X71250000Y48900000D02*
X71650000Y48900000D01*
%TO.C,D18*%
X72250000Y14900000D02*
X72750000Y14900000D01*
X72250000Y14500000D02*
X71650000Y14900000D01*
X71250000Y14900000D02*
X71650000Y14900000D01*
X71650000Y14900000D02*
X71650000Y14350000D01*
X71650000Y14900000D02*
X71650000Y15450000D01*
X71650000Y14900000D02*
X72250000Y15300000D01*
X72250000Y15300000D02*
X72250000Y14500000D01*
%TO.C,D7*%
X18250000Y37100000D02*
X17650000Y37500000D01*
X17650000Y37500000D02*
X17650000Y38050000D01*
X18250000Y37500000D02*
X18750000Y37500000D01*
X18250000Y37900000D02*
X18250000Y37100000D01*
X17250000Y37500000D02*
X17650000Y37500000D01*
X17650000Y37500000D02*
X17650000Y36950000D01*
X17650000Y37500000D02*
X18250000Y37900000D01*
%TO.C,D13*%
X53650000Y-1600000D02*
X54250000Y-1200000D01*
X53250000Y-1600000D02*
X53650000Y-1600000D01*
X54250000Y-1600000D02*
X54750000Y-1600000D01*
X54250000Y-1200000D02*
X54250000Y-2000000D01*
X53650000Y-1600000D02*
X53650000Y-2150000D01*
X54250000Y-2000000D02*
X53650000Y-1600000D01*
X53650000Y-1600000D02*
X53650000Y-1050000D01*
%TO.C,D4*%
X-350000Y46000000D02*
X-350000Y46550000D01*
X-350000Y46000000D02*
X250000Y46400000D01*
X250000Y45600000D02*
X-350000Y46000000D01*
X-350000Y46000000D02*
X-350000Y45450000D01*
X250000Y46000000D02*
X750000Y46000000D01*
X-750000Y46000000D02*
X-350000Y46000000D01*
X250000Y46400000D02*
X250000Y45600000D01*
%TO.C,D23*%
X96344840Y-26600736D02*
X96298430Y-25881121D01*
X96144840Y-26947146D02*
X96344840Y-26600736D01*
X96644840Y-26081121D02*
X96894840Y-25648108D01*
X96344840Y-26600736D02*
X95868526Y-26325736D01*
X96344840Y-26600736D02*
X96821154Y-26875736D01*
X96991250Y-26281121D02*
X96344840Y-26600736D01*
X96298430Y-25881121D02*
X96991250Y-26281121D01*
%TO.C,D21*%
X53650000Y-18600000D02*
X53650000Y-18050000D01*
X54250000Y-19000000D02*
X53650000Y-18600000D01*
X53250000Y-18600000D02*
X53650000Y-18600000D01*
X54250000Y-18600000D02*
X54750000Y-18600000D01*
X54250000Y-18200000D02*
X54250000Y-19000000D01*
X53650000Y-18600000D02*
X53650000Y-19150000D01*
X53650000Y-18600000D02*
X54250000Y-18200000D01*
%TO.C,D14*%
X54250000Y15400000D02*
X54750000Y15400000D01*
X53650000Y15400000D02*
X53650000Y15950000D01*
X53650000Y15400000D02*
X53650000Y14850000D01*
X54250000Y15000000D02*
X53650000Y15400000D01*
X53250000Y15400000D02*
X53650000Y15400000D01*
X54250000Y15800000D02*
X54250000Y15000000D01*
X53650000Y15400000D02*
X54250000Y15800000D01*
%TO.C,D9*%
X35650000Y-3300000D02*
X35650000Y-2750000D01*
X35650000Y-3300000D02*
X35650000Y-3850000D01*
X35250000Y-3300000D02*
X35650000Y-3300000D01*
X36250000Y-2900000D02*
X36250000Y-3700000D01*
X36250000Y-3300000D02*
X36750000Y-3300000D01*
X36250000Y-3700000D02*
X35650000Y-3300000D01*
X35650000Y-3300000D02*
X36250000Y-2900000D01*
%TO.C,D12*%
X36250000Y47700000D02*
X36750000Y47700000D01*
X36250000Y48100000D02*
X36250000Y47300000D01*
X35650000Y47700000D02*
X35650000Y48250000D01*
X35650000Y47700000D02*
X36250000Y48100000D01*
X35650000Y47700000D02*
X35650000Y47150000D01*
X35250000Y47700000D02*
X35650000Y47700000D01*
X36250000Y47300000D02*
X35650000Y47700000D01*
%TO.C,D1*%
X-350000Y-5000000D02*
X250000Y-4600000D01*
X-750000Y-5000000D02*
X-350000Y-5000000D01*
X250000Y-5000000D02*
X750000Y-5000000D01*
X250000Y-4600000D02*
X250000Y-5400000D01*
X250000Y-5400000D02*
X-350000Y-5000000D01*
X-350000Y-5000000D02*
X-350000Y-5550000D01*
X-350000Y-5000000D02*
X-350000Y-4450000D01*
%TO.C,D8*%
X17650000Y54500000D02*
X18250000Y54900000D01*
X18250000Y54500000D02*
X18750000Y54500000D01*
X17650000Y54500000D02*
X17650000Y53950000D01*
X18250000Y54100000D02*
X17650000Y54500000D01*
X17650000Y54500000D02*
X17650000Y55050000D01*
X18250000Y54900000D02*
X18250000Y54100000D01*
X17250000Y54500000D02*
X17650000Y54500000D01*
%TO.C,D5*%
X17650000Y3500000D02*
X17650000Y2950000D01*
X17250000Y3500000D02*
X17650000Y3500000D01*
X18250000Y3100000D02*
X17650000Y3500000D01*
X17650000Y3500000D02*
X18250000Y3900000D01*
X17650000Y3500000D02*
X17650000Y4050000D01*
X18250000Y3900000D02*
X18250000Y3100000D01*
X18250000Y3500000D02*
X18750000Y3500000D01*
%TO.C,D19*%
X71650000Y31900000D02*
X72250000Y32300000D01*
X72250000Y31900000D02*
X72750000Y31900000D01*
X71250000Y31900000D02*
X71650000Y31900000D01*
X72250000Y32300000D02*
X72250000Y31500000D01*
X71650000Y31900000D02*
X71650000Y32450000D01*
X72250000Y31500000D02*
X71650000Y31900000D01*
X71650000Y31900000D02*
X71650000Y31350000D01*
%TO.C,D2*%
X-750000Y12000000D02*
X-350000Y12000000D01*
X250000Y12400000D02*
X250000Y11600000D01*
X250000Y12000000D02*
X750000Y12000000D01*
X-350000Y12000000D02*
X-350000Y11450000D01*
X-350000Y12000000D02*
X-350000Y12550000D01*
X-350000Y12000000D02*
X250000Y12400000D01*
X250000Y11600000D02*
X-350000Y12000000D01*
%TO.C,D3*%
X-350000Y29000000D02*
X-350000Y29550000D01*
X-750000Y29000000D02*
X-350000Y29000000D01*
X250000Y28600000D02*
X-350000Y29000000D01*
X250000Y29000000D02*
X750000Y29000000D01*
X-350000Y29000000D02*
X-350000Y28450000D01*
X250000Y29400000D02*
X250000Y28600000D01*
X-350000Y29000000D02*
X250000Y29400000D01*
%TD*%
D12*
%TO.C,MCU1*%
X83880000Y30870000D03*
D13*
X83880000Y28330000D03*
X83880000Y25790000D03*
X83880000Y23250000D03*
X83880000Y20710000D03*
X83880000Y18170000D03*
X83880000Y15630000D03*
X83880000Y13090000D03*
X83880000Y10550000D03*
X83880000Y8010000D03*
X83880000Y5470000D03*
X83880000Y2930000D03*
X99120000Y30870000D03*
X99120000Y28330000D03*
X99120000Y25790000D03*
X99120000Y23250000D03*
X99120000Y20710000D03*
X99120000Y18170000D03*
X99120000Y15630000D03*
X99120000Y13090000D03*
X99120000Y10550000D03*
X99120000Y8010000D03*
X99120000Y5470000D03*
X99120000Y2930000D03*
%TD*%
M02*
