%TF.GenerationSoftware,KiCad,Pcbnew,(6.0.0)*%
%TF.CreationDate,2022-02-05T12:05:09+01:00*%
%TF.ProjectId,samoklava2_pcb,73616d6f-6b6c-4617-9661-325f7063622e,v1.0.0*%
%TF.SameCoordinates,Original*%
%TF.FileFunction,Legend,Top*%
%TF.FilePolarity,Positive*%
%FSLAX46Y46*%
G04 Gerber Fmt 4.6, Leading zero omitted, Abs format (unit mm)*
G04 Created by KiCad (PCBNEW (6.0.0)) date 2022-02-05 12:05:09*
%MOMM*%
%LPD*%
G01*
G04 APERTURE LIST*
%TA.AperFunction,Profile*%
%ADD10C,0.150000*%
%TD*%
%ADD11C,0.150000*%
%ADD12C,0.100000*%
%ADD13R,1.752600X1.752600*%
%ADD14C,1.752600*%
G04 APERTURE END LIST*
D10*
X101000000Y33900000D02*
G75*
G03*
X99000000Y35900000I-1999999J1D01*
G01*
X101000000Y-12141090D02*
G75*
G03*
X102000000Y-13873141I2000000J0D01*
G01*
X-9000000Y-6500000D02*
G75*
G03*
X-7000000Y-8500000I1999999J-1D01*
G01*
X-9000000Y58232663D02*
X-9000000Y-6500000D01*
X8594465Y67808497D02*
X-7854013Y60041161D01*
X44745899Y62971995D02*
X27267341Y67924253D01*
X46395588Y-22100000D02*
X62441218Y-22100000D01*
X80027025Y62426662D02*
X45264080Y62896431D01*
X40481569Y-9809869D02*
X44518431Y-20790131D01*
X78060291Y-31227935D02*
G75*
G03*
X78096935Y-31249615I1031524J1701695D01*
G01*
X-7000000Y-8500000D02*
X38604412Y-8500000D01*
X27267341Y67924253D02*
G75*
G03*
X26722136Y68000000I-545201J-1924212D01*
G01*
X78096934Y-31249614D02*
X91068878Y-38738969D01*
X26722135Y68000000D02*
X9448477Y68000000D01*
X44518431Y-20790131D02*
G75*
G03*
X46395588Y-22100000I1877157J690130D01*
G01*
X10000000Y8500000D02*
G75*
G03*
X10000000Y8500000I-1000000J0D01*
G01*
X63477862Y-22389629D02*
X78060291Y-31227935D01*
X64000000Y11400000D02*
G75*
G03*
X64000000Y11400000I-1000000J0D01*
G01*
X40481569Y-9809869D02*
G75*
G03*
X38604412Y-8500000I-1877157J-690130D01*
G01*
X99000000Y35900000D02*
X84000000Y35900000D01*
X101000000Y-12141090D02*
X101000000Y33900000D01*
X9448477Y68000000D02*
G75*
G03*
X8594464Y67808497I2J-2000006D01*
G01*
X82000000Y37900000D02*
X82000000Y60426844D01*
X10000000Y51000000D02*
G75*
G03*
X10000000Y51000000I-1000000J0D01*
G01*
X-7854013Y60041161D02*
G75*
G03*
X-9000001Y58232663I854012J-1808497D01*
G01*
X93800928Y-38006919D02*
X105300929Y-18088334D01*
X63477862Y-22389629D02*
G75*
G03*
X62441218Y-22100000I-1036646J-1710378D01*
G01*
X64000000Y45900000D02*
G75*
G03*
X64000000Y45900000I-1000000J0D01*
G01*
X105300929Y-18088334D02*
G75*
G03*
X104568878Y-15356283I-1732051J1000000D01*
G01*
X102000000Y-13873141D02*
X104568878Y-15356284D01*
X44745899Y62971995D02*
G75*
G03*
X45264080Y62896431I545202J1924232D01*
G01*
X82000001Y60426844D02*
G75*
G03*
X80027025Y62426661I-2000001J-1D01*
G01*
X91068878Y-38738969D02*
G75*
G03*
X93800928Y-38006919I1000000J1732050D01*
G01*
X82000000Y37900000D02*
G75*
G03*
X84000000Y35900000I1999999J-1D01*
G01*
D11*
%TO.C,MCU1*%
X85728571Y12728095D02*
X85728571Y13528095D01*
X86033333Y13528095D01*
X86109523Y13490000D01*
X86147619Y13451904D01*
X86185714Y13375714D01*
X86185714Y13261428D01*
X86147619Y13185238D01*
X86109523Y13147142D01*
X86033333Y13109047D01*
X85728571Y13109047D01*
X86947619Y12728095D02*
X86490476Y12728095D01*
X86719047Y12728095D02*
X86719047Y13528095D01*
X86642857Y13413809D01*
X86566666Y13337619D01*
X86490476Y13299523D01*
X87404761Y13185238D02*
X87328571Y13223333D01*
X87290476Y13261428D01*
X87252380Y13337619D01*
X87252380Y13375714D01*
X87290476Y13451904D01*
X87328571Y13490000D01*
X87404761Y13528095D01*
X87557142Y13528095D01*
X87633333Y13490000D01*
X87671428Y13451904D01*
X87709523Y13375714D01*
X87709523Y13337619D01*
X87671428Y13261428D01*
X87633333Y13223333D01*
X87557142Y13185238D01*
X87404761Y13185238D01*
X87328571Y13147142D01*
X87290476Y13109047D01*
X87252380Y13032857D01*
X87252380Y12880476D01*
X87290476Y12804285D01*
X87328571Y12766190D01*
X87404761Y12728095D01*
X87557142Y12728095D01*
X87633333Y12766190D01*
X87671428Y12804285D01*
X87709523Y12880476D01*
X87709523Y13032857D01*
X87671428Y13109047D01*
X87633333Y13147142D01*
X87557142Y13185238D01*
X85728571Y15268095D02*
X85728571Y16068095D01*
X86033333Y16068095D01*
X86109523Y16030000D01*
X86147619Y15991904D01*
X86185714Y15915714D01*
X86185714Y15801428D01*
X86147619Y15725238D01*
X86109523Y15687142D01*
X86033333Y15649047D01*
X85728571Y15649047D01*
X86947619Y15268095D02*
X86490476Y15268095D01*
X86719047Y15268095D02*
X86719047Y16068095D01*
X86642857Y15953809D01*
X86566666Y15877619D01*
X86490476Y15839523D01*
X87328571Y15268095D02*
X87480952Y15268095D01*
X87557142Y15306190D01*
X87595238Y15344285D01*
X87671428Y15458571D01*
X87709523Y15610952D01*
X87709523Y15915714D01*
X87671428Y15991904D01*
X87633333Y16030000D01*
X87557142Y16068095D01*
X87404761Y16068095D01*
X87328571Y16030000D01*
X87290476Y15991904D01*
X87252380Y15915714D01*
X87252380Y15725238D01*
X87290476Y15649047D01*
X87328571Y15610952D01*
X87404761Y15572857D01*
X87557142Y15572857D01*
X87633333Y15610952D01*
X87671428Y15649047D01*
X87709523Y15725238D01*
X85728571Y2568095D02*
X85728571Y3368095D01*
X86033333Y3368095D01*
X86109523Y3330000D01*
X86147619Y3291904D01*
X86185714Y3215714D01*
X86185714Y3101428D01*
X86147619Y3025238D01*
X86109523Y2987142D01*
X86033333Y2949047D01*
X85728571Y2949047D01*
X86947619Y2568095D02*
X86490476Y2568095D01*
X86719047Y2568095D02*
X86719047Y3368095D01*
X86642857Y3253809D01*
X86566666Y3177619D01*
X86490476Y3139523D01*
X87442857Y3368095D02*
X87519047Y3368095D01*
X87595238Y3330000D01*
X87633333Y3291904D01*
X87671428Y3215714D01*
X87709523Y3063333D01*
X87709523Y2872857D01*
X87671428Y2720476D01*
X87633333Y2644285D01*
X87595238Y2606190D01*
X87519047Y2568095D01*
X87442857Y2568095D01*
X87366666Y2606190D01*
X87328571Y2644285D01*
X87290476Y2720476D01*
X87252380Y2872857D01*
X87252380Y3063333D01*
X87290476Y3215714D01*
X87328571Y3291904D01*
X87366666Y3330000D01*
X87442857Y3368095D01*
X95328571Y17808095D02*
X95328571Y18608095D01*
X95633333Y18608095D01*
X95709523Y18570000D01*
X95747619Y18531904D01*
X95785714Y18455714D01*
X95785714Y18341428D01*
X95747619Y18265238D01*
X95709523Y18227142D01*
X95633333Y18189047D01*
X95328571Y18189047D01*
X96280952Y18608095D02*
X96357142Y18608095D01*
X96433333Y18570000D01*
X96471428Y18531904D01*
X96509523Y18455714D01*
X96547619Y18303333D01*
X96547619Y18112857D01*
X96509523Y17960476D01*
X96471428Y17884285D01*
X96433333Y17846190D01*
X96357142Y17808095D01*
X96280952Y17808095D01*
X96204761Y17846190D01*
X96166666Y17884285D01*
X96128571Y17960476D01*
X96090476Y18112857D01*
X96090476Y18303333D01*
X96128571Y18455714D01*
X96166666Y18531904D01*
X96204761Y18570000D01*
X96280952Y18608095D01*
X96814285Y18608095D02*
X97309523Y18608095D01*
X97042857Y18303333D01*
X97157142Y18303333D01*
X97233333Y18265238D01*
X97271428Y18227142D01*
X97309523Y18150952D01*
X97309523Y17960476D01*
X97271428Y17884285D01*
X97233333Y17846190D01*
X97157142Y17808095D01*
X96928571Y17808095D01*
X96852380Y17846190D01*
X96814285Y17884285D01*
X95328571Y10188095D02*
X95328571Y10988095D01*
X95633333Y10988095D01*
X95709523Y10950000D01*
X95747619Y10911904D01*
X95785714Y10835714D01*
X95785714Y10721428D01*
X95747619Y10645238D01*
X95709523Y10607142D01*
X95633333Y10569047D01*
X95328571Y10569047D01*
X96280952Y10988095D02*
X96357142Y10988095D01*
X96433333Y10950000D01*
X96471428Y10911904D01*
X96509523Y10835714D01*
X96547619Y10683333D01*
X96547619Y10492857D01*
X96509523Y10340476D01*
X96471428Y10264285D01*
X96433333Y10226190D01*
X96357142Y10188095D01*
X96280952Y10188095D01*
X96204761Y10226190D01*
X96166666Y10264285D01*
X96128571Y10340476D01*
X96090476Y10492857D01*
X96090476Y10683333D01*
X96128571Y10835714D01*
X96166666Y10911904D01*
X96204761Y10950000D01*
X96280952Y10988095D01*
X97233333Y10988095D02*
X97080952Y10988095D01*
X97004761Y10950000D01*
X96966666Y10911904D01*
X96890476Y10797619D01*
X96852380Y10645238D01*
X96852380Y10340476D01*
X96890476Y10264285D01*
X96928571Y10226190D01*
X97004761Y10188095D01*
X97157142Y10188095D01*
X97233333Y10226190D01*
X97271428Y10264285D01*
X97309523Y10340476D01*
X97309523Y10530952D01*
X97271428Y10607142D01*
X97233333Y10645238D01*
X97157142Y10683333D01*
X97004761Y10683333D01*
X96928571Y10645238D01*
X96890476Y10607142D01*
X96852380Y10530952D01*
X85728571Y7648095D02*
X85728571Y8448095D01*
X86033333Y8448095D01*
X86109523Y8410000D01*
X86147619Y8371904D01*
X86185714Y8295714D01*
X86185714Y8181428D01*
X86147619Y8105238D01*
X86109523Y8067142D01*
X86033333Y8029047D01*
X85728571Y8029047D01*
X86947619Y7648095D02*
X86490476Y7648095D01*
X86719047Y7648095D02*
X86719047Y8448095D01*
X86642857Y8333809D01*
X86566666Y8257619D01*
X86490476Y8219523D01*
X87633333Y8181428D02*
X87633333Y7648095D01*
X87442857Y8486190D02*
X87252380Y7914761D01*
X87747619Y7914761D01*
X95328571Y30508095D02*
X95328571Y31308095D01*
X95633333Y31308095D01*
X95709523Y31270000D01*
X95747619Y31231904D01*
X95785714Y31155714D01*
X95785714Y31041428D01*
X95747619Y30965238D01*
X95709523Y30927142D01*
X95633333Y30889047D01*
X95328571Y30889047D01*
X96280952Y31308095D02*
X96357142Y31308095D01*
X96433333Y31270000D01*
X96471428Y31231904D01*
X96509523Y31155714D01*
X96547619Y31003333D01*
X96547619Y30812857D01*
X96509523Y30660476D01*
X96471428Y30584285D01*
X96433333Y30546190D01*
X96357142Y30508095D01*
X96280952Y30508095D01*
X96204761Y30546190D01*
X96166666Y30584285D01*
X96128571Y30660476D01*
X96090476Y30812857D01*
X96090476Y31003333D01*
X96128571Y31155714D01*
X96166666Y31231904D01*
X96204761Y31270000D01*
X96280952Y31308095D01*
X97309523Y30508095D02*
X96852380Y30508095D01*
X97080952Y30508095D02*
X97080952Y31308095D01*
X97004761Y31193809D01*
X96928571Y31117619D01*
X96852380Y31079523D01*
X85728571Y20348095D02*
X85728571Y21148095D01*
X86033333Y21148095D01*
X86109523Y21110000D01*
X86147619Y21071904D01*
X86185714Y20995714D01*
X86185714Y20881428D01*
X86147619Y20805238D01*
X86109523Y20767142D01*
X86033333Y20729047D01*
X85728571Y20729047D01*
X86490476Y21071904D02*
X86528571Y21110000D01*
X86604761Y21148095D01*
X86795238Y21148095D01*
X86871428Y21110000D01*
X86909523Y21071904D01*
X86947619Y20995714D01*
X86947619Y20919523D01*
X86909523Y20805238D01*
X86452380Y20348095D01*
X86947619Y20348095D01*
X87709523Y20348095D02*
X87252380Y20348095D01*
X87480952Y20348095D02*
X87480952Y21148095D01*
X87404761Y21033809D01*
X87328571Y20957619D01*
X87252380Y20919523D01*
X86147619Y30508095D02*
X85880952Y30889047D01*
X85690476Y30508095D02*
X85690476Y31308095D01*
X85995238Y31308095D01*
X86071428Y31270000D01*
X86109523Y31231904D01*
X86147619Y31155714D01*
X86147619Y31041428D01*
X86109523Y30965238D01*
X86071428Y30927142D01*
X85995238Y30889047D01*
X85690476Y30889047D01*
X86452380Y30736666D02*
X86833333Y30736666D01*
X86376190Y30508095D02*
X86642857Y31308095D01*
X86909523Y30508095D01*
X87100000Y31308095D02*
X87290476Y30508095D01*
X87442857Y31079523D01*
X87595238Y30508095D01*
X87785714Y31308095D01*
X95690476Y23650000D02*
X95614285Y23688095D01*
X95500000Y23688095D01*
X95385714Y23650000D01*
X95309523Y23573809D01*
X95271428Y23497619D01*
X95233333Y23345238D01*
X95233333Y23230952D01*
X95271428Y23078571D01*
X95309523Y23002380D01*
X95385714Y22926190D01*
X95500000Y22888095D01*
X95576190Y22888095D01*
X95690476Y22926190D01*
X95728571Y22964285D01*
X95728571Y23230952D01*
X95576190Y23230952D01*
X96071428Y22888095D02*
X96071428Y23688095D01*
X96528571Y22888095D01*
X96528571Y23688095D01*
X96909523Y22888095D02*
X96909523Y23688095D01*
X97100000Y23688095D01*
X97214285Y23650000D01*
X97290476Y23573809D01*
X97328571Y23497619D01*
X97366666Y23345238D01*
X97366666Y23230952D01*
X97328571Y23078571D01*
X97290476Y23002380D01*
X97214285Y22926190D01*
X97100000Y22888095D01*
X96909523Y22888095D01*
X95690476Y26190000D02*
X95614285Y26228095D01*
X95500000Y26228095D01*
X95385714Y26190000D01*
X95309523Y26113809D01*
X95271428Y26037619D01*
X95233333Y25885238D01*
X95233333Y25770952D01*
X95271428Y25618571D01*
X95309523Y25542380D01*
X95385714Y25466190D01*
X95500000Y25428095D01*
X95576190Y25428095D01*
X95690476Y25466190D01*
X95728571Y25504285D01*
X95728571Y25770952D01*
X95576190Y25770952D01*
X96071428Y25428095D02*
X96071428Y26228095D01*
X96528571Y25428095D01*
X96528571Y26228095D01*
X96909523Y25428095D02*
X96909523Y26228095D01*
X97100000Y26228095D01*
X97214285Y26190000D01*
X97290476Y26113809D01*
X97328571Y26037619D01*
X97366666Y25885238D01*
X97366666Y25770952D01*
X97328571Y25618571D01*
X97290476Y25542380D01*
X97214285Y25466190D01*
X97100000Y25428095D01*
X96909523Y25428095D01*
X85728571Y5108095D02*
X85728571Y5908095D01*
X86033333Y5908095D01*
X86109523Y5870000D01*
X86147619Y5831904D01*
X86185714Y5755714D01*
X86185714Y5641428D01*
X86147619Y5565238D01*
X86109523Y5527142D01*
X86033333Y5489047D01*
X85728571Y5489047D01*
X86947619Y5108095D02*
X86490476Y5108095D01*
X86719047Y5108095D02*
X86719047Y5908095D01*
X86642857Y5793809D01*
X86566666Y5717619D01*
X86490476Y5679523D01*
X87633333Y5908095D02*
X87480952Y5908095D01*
X87404761Y5870000D01*
X87366666Y5831904D01*
X87290476Y5717619D01*
X87252380Y5565238D01*
X87252380Y5260476D01*
X87290476Y5184285D01*
X87328571Y5146190D01*
X87404761Y5108095D01*
X87557142Y5108095D01*
X87633333Y5146190D01*
X87671428Y5184285D01*
X87709523Y5260476D01*
X87709523Y5450952D01*
X87671428Y5527142D01*
X87633333Y5565238D01*
X87557142Y5603333D01*
X87404761Y5603333D01*
X87328571Y5565238D01*
X87290476Y5527142D01*
X87252380Y5450952D01*
X86090476Y28730000D02*
X86014285Y28768095D01*
X85900000Y28768095D01*
X85785714Y28730000D01*
X85709523Y28653809D01*
X85671428Y28577619D01*
X85633333Y28425238D01*
X85633333Y28310952D01*
X85671428Y28158571D01*
X85709523Y28082380D01*
X85785714Y28006190D01*
X85900000Y27968095D01*
X85976190Y27968095D01*
X86090476Y28006190D01*
X86128571Y28044285D01*
X86128571Y28310952D01*
X85976190Y28310952D01*
X86471428Y27968095D02*
X86471428Y28768095D01*
X86928571Y27968095D01*
X86928571Y28768095D01*
X87309523Y27968095D02*
X87309523Y28768095D01*
X87500000Y28768095D01*
X87614285Y28730000D01*
X87690476Y28653809D01*
X87728571Y28577619D01*
X87766666Y28425238D01*
X87766666Y28310952D01*
X87728571Y28158571D01*
X87690476Y28082380D01*
X87614285Y28006190D01*
X87500000Y27968095D01*
X87309523Y27968095D01*
X85633333Y23688095D02*
X85900000Y22888095D01*
X86166666Y23688095D01*
X86890476Y22964285D02*
X86852380Y22926190D01*
X86738095Y22888095D01*
X86661904Y22888095D01*
X86547619Y22926190D01*
X86471428Y23002380D01*
X86433333Y23078571D01*
X86395238Y23230952D01*
X86395238Y23345238D01*
X86433333Y23497619D01*
X86471428Y23573809D01*
X86547619Y23650000D01*
X86661904Y23688095D01*
X86738095Y23688095D01*
X86852380Y23650000D01*
X86890476Y23611904D01*
X87690476Y22964285D02*
X87652380Y22926190D01*
X87538095Y22888095D01*
X87461904Y22888095D01*
X87347619Y22926190D01*
X87271428Y23002380D01*
X87233333Y23078571D01*
X87195238Y23230952D01*
X87195238Y23345238D01*
X87233333Y23497619D01*
X87271428Y23573809D01*
X87347619Y23650000D01*
X87461904Y23688095D01*
X87538095Y23688095D01*
X87652380Y23650000D01*
X87690476Y23611904D01*
X95328571Y5108095D02*
X95328571Y5908095D01*
X95633333Y5908095D01*
X95709523Y5870000D01*
X95747619Y5831904D01*
X95785714Y5755714D01*
X95785714Y5641428D01*
X95747619Y5565238D01*
X95709523Y5527142D01*
X95633333Y5489047D01*
X95328571Y5489047D01*
X96280952Y5908095D02*
X96357142Y5908095D01*
X96433333Y5870000D01*
X96471428Y5831904D01*
X96509523Y5755714D01*
X96547619Y5603333D01*
X96547619Y5412857D01*
X96509523Y5260476D01*
X96471428Y5184285D01*
X96433333Y5146190D01*
X96357142Y5108095D01*
X96280952Y5108095D01*
X96204761Y5146190D01*
X96166666Y5184285D01*
X96128571Y5260476D01*
X96090476Y5412857D01*
X96090476Y5603333D01*
X96128571Y5755714D01*
X96166666Y5831904D01*
X96204761Y5870000D01*
X96280952Y5908095D01*
X97004761Y5565238D02*
X96928571Y5603333D01*
X96890476Y5641428D01*
X96852380Y5717619D01*
X96852380Y5755714D01*
X96890476Y5831904D01*
X96928571Y5870000D01*
X97004761Y5908095D01*
X97157142Y5908095D01*
X97233333Y5870000D01*
X97271428Y5831904D01*
X97309523Y5755714D01*
X97309523Y5717619D01*
X97271428Y5641428D01*
X97233333Y5603333D01*
X97157142Y5565238D01*
X97004761Y5565238D01*
X96928571Y5527142D01*
X96890476Y5489047D01*
X96852380Y5412857D01*
X96852380Y5260476D01*
X96890476Y5184285D01*
X96928571Y5146190D01*
X97004761Y5108095D01*
X97157142Y5108095D01*
X97233333Y5146190D01*
X97271428Y5184285D01*
X97309523Y5260476D01*
X97309523Y5412857D01*
X97271428Y5489047D01*
X97233333Y5527142D01*
X97157142Y5565238D01*
X95328571Y20348095D02*
X95328571Y21148095D01*
X95633333Y21148095D01*
X95709523Y21110000D01*
X95747619Y21071904D01*
X95785714Y20995714D01*
X95785714Y20881428D01*
X95747619Y20805238D01*
X95709523Y20767142D01*
X95633333Y20729047D01*
X95328571Y20729047D01*
X96280952Y21148095D02*
X96357142Y21148095D01*
X96433333Y21110000D01*
X96471428Y21071904D01*
X96509523Y20995714D01*
X96547619Y20843333D01*
X96547619Y20652857D01*
X96509523Y20500476D01*
X96471428Y20424285D01*
X96433333Y20386190D01*
X96357142Y20348095D01*
X96280952Y20348095D01*
X96204761Y20386190D01*
X96166666Y20424285D01*
X96128571Y20500476D01*
X96090476Y20652857D01*
X96090476Y20843333D01*
X96128571Y20995714D01*
X96166666Y21071904D01*
X96204761Y21110000D01*
X96280952Y21148095D01*
X96852380Y21071904D02*
X96890476Y21110000D01*
X96966666Y21148095D01*
X97157142Y21148095D01*
X97233333Y21110000D01*
X97271428Y21071904D01*
X97309523Y20995714D01*
X97309523Y20919523D01*
X97271428Y20805238D01*
X96814285Y20348095D01*
X97309523Y20348095D01*
X95328571Y12728095D02*
X95328571Y13528095D01*
X95633333Y13528095D01*
X95709523Y13490000D01*
X95747619Y13451904D01*
X95785714Y13375714D01*
X95785714Y13261428D01*
X95747619Y13185238D01*
X95709523Y13147142D01*
X95633333Y13109047D01*
X95328571Y13109047D01*
X96280952Y13528095D02*
X96357142Y13528095D01*
X96433333Y13490000D01*
X96471428Y13451904D01*
X96509523Y13375714D01*
X96547619Y13223333D01*
X96547619Y13032857D01*
X96509523Y12880476D01*
X96471428Y12804285D01*
X96433333Y12766190D01*
X96357142Y12728095D01*
X96280952Y12728095D01*
X96204761Y12766190D01*
X96166666Y12804285D01*
X96128571Y12880476D01*
X96090476Y13032857D01*
X96090476Y13223333D01*
X96128571Y13375714D01*
X96166666Y13451904D01*
X96204761Y13490000D01*
X96280952Y13528095D01*
X97271428Y13528095D02*
X96890476Y13528095D01*
X96852380Y13147142D01*
X96890476Y13185238D01*
X96966666Y13223333D01*
X97157142Y13223333D01*
X97233333Y13185238D01*
X97271428Y13147142D01*
X97309523Y13070952D01*
X97309523Y12880476D01*
X97271428Y12804285D01*
X97233333Y12766190D01*
X97157142Y12728095D01*
X96966666Y12728095D01*
X96890476Y12766190D01*
X96852380Y12804285D01*
X95328571Y7648095D02*
X95328571Y8448095D01*
X95633333Y8448095D01*
X95709523Y8410000D01*
X95747619Y8371904D01*
X95785714Y8295714D01*
X95785714Y8181428D01*
X95747619Y8105238D01*
X95709523Y8067142D01*
X95633333Y8029047D01*
X95328571Y8029047D01*
X96280952Y8448095D02*
X96357142Y8448095D01*
X96433333Y8410000D01*
X96471428Y8371904D01*
X96509523Y8295714D01*
X96547619Y8143333D01*
X96547619Y7952857D01*
X96509523Y7800476D01*
X96471428Y7724285D01*
X96433333Y7686190D01*
X96357142Y7648095D01*
X96280952Y7648095D01*
X96204761Y7686190D01*
X96166666Y7724285D01*
X96128571Y7800476D01*
X96090476Y7952857D01*
X96090476Y8143333D01*
X96128571Y8295714D01*
X96166666Y8371904D01*
X96204761Y8410000D01*
X96280952Y8448095D01*
X96814285Y8448095D02*
X97347619Y8448095D01*
X97004761Y7648095D01*
X86261904Y25428095D02*
X85995238Y25809047D01*
X85804761Y25428095D02*
X85804761Y26228095D01*
X86109523Y26228095D01*
X86185714Y26190000D01*
X86223809Y26151904D01*
X86261904Y26075714D01*
X86261904Y25961428D01*
X86223809Y25885238D01*
X86185714Y25847142D01*
X86109523Y25809047D01*
X85804761Y25809047D01*
X86566666Y25466190D02*
X86680952Y25428095D01*
X86871428Y25428095D01*
X86947619Y25466190D01*
X86985714Y25504285D01*
X87023809Y25580476D01*
X87023809Y25656666D01*
X86985714Y25732857D01*
X86947619Y25770952D01*
X86871428Y25809047D01*
X86719047Y25847142D01*
X86642857Y25885238D01*
X86604761Y25923333D01*
X86566666Y25999523D01*
X86566666Y26075714D01*
X86604761Y26151904D01*
X86642857Y26190000D01*
X86719047Y26228095D01*
X86909523Y26228095D01*
X87023809Y26190000D01*
X87252380Y26228095D02*
X87709523Y26228095D01*
X87480952Y25428095D02*
X87480952Y26228095D01*
X85728571Y10188095D02*
X85728571Y10988095D01*
X86033333Y10988095D01*
X86109523Y10950000D01*
X86147619Y10911904D01*
X86185714Y10835714D01*
X86185714Y10721428D01*
X86147619Y10645238D01*
X86109523Y10607142D01*
X86033333Y10569047D01*
X85728571Y10569047D01*
X86947619Y10188095D02*
X86490476Y10188095D01*
X86719047Y10188095D02*
X86719047Y10988095D01*
X86642857Y10873809D01*
X86566666Y10797619D01*
X86490476Y10759523D01*
X87671428Y10988095D02*
X87290476Y10988095D01*
X87252380Y10607142D01*
X87290476Y10645238D01*
X87366666Y10683333D01*
X87557142Y10683333D01*
X87633333Y10645238D01*
X87671428Y10607142D01*
X87709523Y10530952D01*
X87709523Y10340476D01*
X87671428Y10264285D01*
X87633333Y10226190D01*
X87557142Y10188095D01*
X87366666Y10188095D01*
X87290476Y10226190D01*
X87252380Y10264285D01*
X95328571Y2568095D02*
X95328571Y3368095D01*
X95633333Y3368095D01*
X95709523Y3330000D01*
X95747619Y3291904D01*
X95785714Y3215714D01*
X95785714Y3101428D01*
X95747619Y3025238D01*
X95709523Y2987142D01*
X95633333Y2949047D01*
X95328571Y2949047D01*
X96280952Y3368095D02*
X96357142Y3368095D01*
X96433333Y3330000D01*
X96471428Y3291904D01*
X96509523Y3215714D01*
X96547619Y3063333D01*
X96547619Y2872857D01*
X96509523Y2720476D01*
X96471428Y2644285D01*
X96433333Y2606190D01*
X96357142Y2568095D01*
X96280952Y2568095D01*
X96204761Y2606190D01*
X96166666Y2644285D01*
X96128571Y2720476D01*
X96090476Y2872857D01*
X96090476Y3063333D01*
X96128571Y3215714D01*
X96166666Y3291904D01*
X96204761Y3330000D01*
X96280952Y3368095D01*
X96928571Y2568095D02*
X97080952Y2568095D01*
X97157142Y2606190D01*
X97195238Y2644285D01*
X97271428Y2758571D01*
X97309523Y2910952D01*
X97309523Y3215714D01*
X97271428Y3291904D01*
X97233333Y3330000D01*
X97157142Y3368095D01*
X97004761Y3368095D01*
X96928571Y3330000D01*
X96890476Y3291904D01*
X96852380Y3215714D01*
X96852380Y3025238D01*
X96890476Y2949047D01*
X96928571Y2910952D01*
X97004761Y2872857D01*
X97157142Y2872857D01*
X97233333Y2910952D01*
X97271428Y2949047D01*
X97309523Y3025238D01*
X95328571Y15268095D02*
X95328571Y16068095D01*
X95633333Y16068095D01*
X95709523Y16030000D01*
X95747619Y15991904D01*
X95785714Y15915714D01*
X95785714Y15801428D01*
X95747619Y15725238D01*
X95709523Y15687142D01*
X95633333Y15649047D01*
X95328571Y15649047D01*
X96280952Y16068095D02*
X96357142Y16068095D01*
X96433333Y16030000D01*
X96471428Y15991904D01*
X96509523Y15915714D01*
X96547619Y15763333D01*
X96547619Y15572857D01*
X96509523Y15420476D01*
X96471428Y15344285D01*
X96433333Y15306190D01*
X96357142Y15268095D01*
X96280952Y15268095D01*
X96204761Y15306190D01*
X96166666Y15344285D01*
X96128571Y15420476D01*
X96090476Y15572857D01*
X96090476Y15763333D01*
X96128571Y15915714D01*
X96166666Y15991904D01*
X96204761Y16030000D01*
X96280952Y16068095D01*
X97233333Y15801428D02*
X97233333Y15268095D01*
X97042857Y16106190D02*
X96852380Y15534761D01*
X97347619Y15534761D01*
X95328571Y27968095D02*
X95328571Y28768095D01*
X95633333Y28768095D01*
X95709523Y28730000D01*
X95747619Y28691904D01*
X95785714Y28615714D01*
X95785714Y28501428D01*
X95747619Y28425238D01*
X95709523Y28387142D01*
X95633333Y28349047D01*
X95328571Y28349047D01*
X96280952Y28768095D02*
X96357142Y28768095D01*
X96433333Y28730000D01*
X96471428Y28691904D01*
X96509523Y28615714D01*
X96547619Y28463333D01*
X96547619Y28272857D01*
X96509523Y28120476D01*
X96471428Y28044285D01*
X96433333Y28006190D01*
X96357142Y27968095D01*
X96280952Y27968095D01*
X96204761Y28006190D01*
X96166666Y28044285D01*
X96128571Y28120476D01*
X96090476Y28272857D01*
X96090476Y28463333D01*
X96128571Y28615714D01*
X96166666Y28691904D01*
X96204761Y28730000D01*
X96280952Y28768095D01*
X97042857Y28768095D02*
X97119047Y28768095D01*
X97195238Y28730000D01*
X97233333Y28691904D01*
X97271428Y28615714D01*
X97309523Y28463333D01*
X97309523Y28272857D01*
X97271428Y28120476D01*
X97233333Y28044285D01*
X97195238Y28006190D01*
X97119047Y27968095D01*
X97042857Y27968095D01*
X96966666Y28006190D01*
X96928571Y28044285D01*
X96890476Y28120476D01*
X96852380Y28272857D01*
X96852380Y28463333D01*
X96890476Y28615714D01*
X96928571Y28691904D01*
X96966666Y28730000D01*
X97042857Y28768095D01*
X85728571Y17808095D02*
X85728571Y18608095D01*
X86033333Y18608095D01*
X86109523Y18570000D01*
X86147619Y18531904D01*
X86185714Y18455714D01*
X86185714Y18341428D01*
X86147619Y18265238D01*
X86109523Y18227142D01*
X86033333Y18189047D01*
X85728571Y18189047D01*
X86490476Y18531904D02*
X86528571Y18570000D01*
X86604761Y18608095D01*
X86795238Y18608095D01*
X86871428Y18570000D01*
X86909523Y18531904D01*
X86947619Y18455714D01*
X86947619Y18379523D01*
X86909523Y18265238D01*
X86452380Y17808095D01*
X86947619Y17808095D01*
X87442857Y18608095D02*
X87519047Y18608095D01*
X87595238Y18570000D01*
X87633333Y18531904D01*
X87671428Y18455714D01*
X87709523Y18303333D01*
X87709523Y18112857D01*
X87671428Y17960476D01*
X87633333Y17884285D01*
X87595238Y17846190D01*
X87519047Y17808095D01*
X87442857Y17808095D01*
X87366666Y17846190D01*
X87328571Y17884285D01*
X87290476Y17960476D01*
X87252380Y18112857D01*
X87252380Y18303333D01*
X87290476Y18455714D01*
X87328571Y18531904D01*
X87366666Y18570000D01*
X87442857Y18608095D01*
D12*
%TO.C,BT1*%
X93122666Y31140476D02*
X93084571Y31102380D01*
X92970285Y31026190D01*
X92894095Y30988095D01*
X92779809Y30950000D01*
X92589333Y30911904D01*
X92436952Y30911904D01*
X92246476Y30950000D01*
X92132190Y30988095D01*
X92056000Y31026190D01*
X91941714Y31102380D01*
X91903619Y31140476D01*
X92513142Y31445238D02*
X92513142Y32054761D01*
X93122666Y32359523D02*
X93084571Y32397619D01*
X92970285Y32473809D01*
X92894095Y32511904D01*
X92779809Y32550000D01*
X92589333Y32588095D01*
X92436952Y32588095D01*
X92246476Y32550000D01*
X92132190Y32511904D01*
X92056000Y32473809D01*
X91941714Y32397619D01*
X91903619Y32359523D01*
X91090666Y31140476D02*
X91052571Y31102380D01*
X90938285Y31026190D01*
X90862095Y30988095D01*
X90747809Y30950000D01*
X90557333Y30911904D01*
X90404952Y30911904D01*
X90214476Y30950000D01*
X90100190Y30988095D01*
X90024000Y31026190D01*
X89909714Y31102380D01*
X89871619Y31140476D01*
X90481142Y31445238D02*
X90481142Y32054761D01*
X90785904Y31750000D02*
X90176380Y31750000D01*
X91090666Y32359523D02*
X91052571Y32397619D01*
X90938285Y32473809D01*
X90862095Y32511904D01*
X90747809Y32550000D01*
X90557333Y32588095D01*
X90404952Y32588095D01*
X90214476Y32550000D01*
X90100190Y32511904D01*
X90024000Y32473809D01*
X89909714Y32397619D01*
X89871619Y32359523D01*
D11*
%TO.C,T1*%
X96500000Y-7400000D02*
X99350000Y-7400000D01*
X99350000Y-6050000D02*
X99350000Y-2150000D01*
X99350000Y-800000D02*
X96500000Y-800000D01*
X99350000Y-4100000D02*
X99350000Y-800000D01*
X99350000Y-4100000D02*
X99350000Y-7400000D01*
X96500000Y-800000D02*
X96500000Y-7400000D01*
%TO.C,B1*%
X87250000Y-1850000D02*
X87250000Y-4350000D01*
X88750000Y-350000D02*
X91250000Y-350000D01*
X87250000Y-1850000D02*
X88750000Y-350000D01*
X87250000Y-4350000D02*
X88750000Y-5850000D01*
X92750000Y-1850000D02*
X91250000Y-350000D01*
X88750000Y-5850000D02*
X91250000Y-5850000D01*
X92750000Y-4350000D02*
X91250000Y-5850000D01*
X92750000Y-1850000D02*
X92750000Y-4350000D01*
D12*
%TO.C,D22*%
X72261125Y-20958044D02*
X72944208Y-20726965D01*
X71874755Y-20854517D02*
X72261125Y-20958044D01*
X72261125Y-20958044D02*
X72118774Y-21489304D01*
X72737153Y-21499706D02*
X72261125Y-20958044D01*
X72840680Y-21113336D02*
X73323643Y-21242745D01*
X72261125Y-20958044D02*
X72403475Y-20426785D01*
X72944208Y-20726965D02*
X72737153Y-21499706D01*
%TO.C,D15*%
X54250000Y32800000D02*
X54250000Y32000000D01*
X53650000Y32400000D02*
X53650000Y32950000D01*
X53650000Y32400000D02*
X53650000Y31850000D01*
X54250000Y32000000D02*
X53650000Y32400000D01*
X53650000Y32400000D02*
X54250000Y32800000D01*
X54250000Y32400000D02*
X54750000Y32400000D01*
X53250000Y32400000D02*
X53650000Y32400000D01*
%TO.C,D6*%
X18250000Y20900000D02*
X18250000Y20100000D01*
X17250000Y20500000D02*
X17650000Y20500000D01*
X18250000Y20500000D02*
X18750000Y20500000D01*
X18250000Y20100000D02*
X17650000Y20500000D01*
X17650000Y20500000D02*
X18250000Y20900000D01*
X17650000Y20500000D02*
X17650000Y19950000D01*
X17650000Y20500000D02*
X17650000Y21050000D01*
D11*
%TO.C,MCU1*%
X85150000Y29600000D02*
X82610000Y29600000D01*
X100390000Y1660000D02*
X100390000Y34680000D01*
X100390000Y34680000D02*
X82610000Y34680000D01*
X82610000Y1660000D02*
X100390000Y1660000D01*
X85150000Y32140000D02*
X82610000Y32140000D01*
X82610000Y34680000D02*
X82610000Y1660000D01*
X85150000Y32140000D02*
X85150000Y29600000D01*
D12*
%TO.C,D10*%
X36250000Y14100000D02*
X36250000Y13300000D01*
X35650000Y13700000D02*
X35650000Y13150000D01*
X35650000Y13700000D02*
X35650000Y14250000D01*
X36250000Y13700000D02*
X36750000Y13700000D01*
X35650000Y13700000D02*
X36250000Y14100000D01*
X35250000Y13700000D02*
X35650000Y13700000D01*
X36250000Y13300000D02*
X35650000Y13700000D01*
%TO.C,D16*%
X54250000Y49400000D02*
X54750000Y49400000D01*
X53650000Y49400000D02*
X53650000Y49950000D01*
X53250000Y49400000D02*
X53650000Y49400000D01*
X53650000Y49400000D02*
X53650000Y48850000D01*
X53650000Y49400000D02*
X54250000Y49800000D01*
X54250000Y49000000D02*
X53650000Y49400000D01*
X54250000Y49800000D02*
X54250000Y49000000D01*
%TO.C,D11*%
X35650000Y30700000D02*
X35650000Y31250000D01*
X35650000Y30700000D02*
X35650000Y30150000D01*
X36250000Y30300000D02*
X35650000Y30700000D01*
X35250000Y30700000D02*
X35650000Y30700000D01*
X36250000Y30700000D02*
X36750000Y30700000D01*
X35650000Y30700000D02*
X36250000Y31100000D01*
X36250000Y31100000D02*
X36250000Y30300000D01*
%TO.C,D17*%
X71650000Y-2100000D02*
X71650000Y-1550000D01*
X72250000Y-1700000D02*
X72250000Y-2500000D01*
X71250000Y-2100000D02*
X71650000Y-2100000D01*
X71650000Y-2100000D02*
X71650000Y-2650000D01*
X72250000Y-2100000D02*
X72750000Y-2100000D01*
X72250000Y-2500000D02*
X71650000Y-2100000D01*
X71650000Y-2100000D02*
X72250000Y-1700000D01*
%TO.C,D20*%
X71650000Y48900000D02*
X71650000Y49450000D01*
X71250000Y48900000D02*
X71650000Y48900000D01*
X72250000Y48500000D02*
X71650000Y48900000D01*
X71650000Y48900000D02*
X72250000Y49300000D01*
X72250000Y49300000D02*
X72250000Y48500000D01*
X71650000Y48900000D02*
X71650000Y48350000D01*
X72250000Y48900000D02*
X72750000Y48900000D01*
%TO.C,D18*%
X71650000Y14900000D02*
X71650000Y15450000D01*
X72250000Y14900000D02*
X72750000Y14900000D01*
X72250000Y15300000D02*
X72250000Y14500000D01*
X71250000Y14900000D02*
X71650000Y14900000D01*
X71650000Y14900000D02*
X71650000Y14350000D01*
X71650000Y14900000D02*
X72250000Y15300000D01*
X72250000Y14500000D02*
X71650000Y14900000D01*
%TO.C,D7*%
X18250000Y37500000D02*
X18750000Y37500000D01*
X18250000Y37900000D02*
X18250000Y37100000D01*
X17650000Y37500000D02*
X17650000Y38050000D01*
X17250000Y37500000D02*
X17650000Y37500000D01*
X17650000Y37500000D02*
X17650000Y36950000D01*
X17650000Y37500000D02*
X18250000Y37900000D01*
X18250000Y37100000D02*
X17650000Y37500000D01*
%TO.C,D13*%
X53650000Y-1600000D02*
X53650000Y-2150000D01*
X54250000Y-2000000D02*
X53650000Y-1600000D01*
X53650000Y-1600000D02*
X54250000Y-1200000D01*
X53250000Y-1600000D02*
X53650000Y-1600000D01*
X53650000Y-1600000D02*
X53650000Y-1050000D01*
X54250000Y-1200000D02*
X54250000Y-2000000D01*
X54250000Y-1600000D02*
X54750000Y-1600000D01*
%TO.C,D4*%
X250000Y45600000D02*
X-350000Y46000000D01*
X-350000Y46000000D02*
X250000Y46400000D01*
X250000Y46400000D02*
X250000Y45600000D01*
X-350000Y46000000D02*
X-350000Y45450000D01*
X-750000Y46000000D02*
X-350000Y46000000D01*
X250000Y46000000D02*
X750000Y46000000D01*
X-350000Y46000000D02*
X-350000Y46550000D01*
%TO.C,D23*%
X96644840Y-26081121D02*
X96894840Y-25648108D01*
X96344840Y-26600736D02*
X95868526Y-26325736D01*
X96344840Y-26600736D02*
X96821154Y-26875736D01*
X96344840Y-26600736D02*
X96298430Y-25881121D01*
X96298430Y-25881121D02*
X96991250Y-26281121D01*
X96991250Y-26281121D02*
X96344840Y-26600736D01*
X96144840Y-26947146D02*
X96344840Y-26600736D01*
%TO.C,D21*%
X54250000Y-19000000D02*
X53650000Y-18600000D01*
X53650000Y-18600000D02*
X53650000Y-18050000D01*
X53650000Y-18600000D02*
X54250000Y-18200000D01*
X54250000Y-18600000D02*
X54750000Y-18600000D01*
X53650000Y-18600000D02*
X53650000Y-19150000D01*
X54250000Y-18200000D02*
X54250000Y-19000000D01*
X53250000Y-18600000D02*
X53650000Y-18600000D01*
%TO.C,D14*%
X53650000Y15400000D02*
X53650000Y14850000D01*
X53650000Y15400000D02*
X53650000Y15950000D01*
X54250000Y15800000D02*
X54250000Y15000000D01*
X54250000Y15000000D02*
X53650000Y15400000D01*
X53650000Y15400000D02*
X54250000Y15800000D01*
X53250000Y15400000D02*
X53650000Y15400000D01*
X54250000Y15400000D02*
X54750000Y15400000D01*
%TO.C,D9*%
X35650000Y-3300000D02*
X35650000Y-2750000D01*
X35650000Y-3300000D02*
X35650000Y-3850000D01*
X35650000Y-3300000D02*
X36250000Y-2900000D01*
X35250000Y-3300000D02*
X35650000Y-3300000D01*
X36250000Y-2900000D02*
X36250000Y-3700000D01*
X36250000Y-3300000D02*
X36750000Y-3300000D01*
X36250000Y-3700000D02*
X35650000Y-3300000D01*
%TO.C,D12*%
X35650000Y47700000D02*
X36250000Y48100000D01*
X35250000Y47700000D02*
X35650000Y47700000D01*
X36250000Y47300000D02*
X35650000Y47700000D01*
X35650000Y47700000D02*
X35650000Y47150000D01*
X36250000Y48100000D02*
X36250000Y47300000D01*
X35650000Y47700000D02*
X35650000Y48250000D01*
X36250000Y47700000D02*
X36750000Y47700000D01*
%TO.C,D1*%
X250000Y-5000000D02*
X750000Y-5000000D01*
X-350000Y-5000000D02*
X-350000Y-4450000D01*
X-350000Y-5000000D02*
X250000Y-4600000D01*
X-350000Y-5000000D02*
X-350000Y-5550000D01*
X-750000Y-5000000D02*
X-350000Y-5000000D01*
X250000Y-4600000D02*
X250000Y-5400000D01*
X250000Y-5400000D02*
X-350000Y-5000000D01*
%TO.C,D8*%
X18250000Y54500000D02*
X18750000Y54500000D01*
X17250000Y54500000D02*
X17650000Y54500000D01*
X17650000Y54500000D02*
X17650000Y55050000D01*
X17650000Y54500000D02*
X18250000Y54900000D01*
X18250000Y54900000D02*
X18250000Y54100000D01*
X18250000Y54100000D02*
X17650000Y54500000D01*
X17650000Y54500000D02*
X17650000Y53950000D01*
%TO.C,D5*%
X17650000Y3500000D02*
X17650000Y4050000D01*
X17250000Y3500000D02*
X17650000Y3500000D01*
X17650000Y3500000D02*
X17650000Y2950000D01*
X18250000Y3100000D02*
X17650000Y3500000D01*
X17650000Y3500000D02*
X18250000Y3900000D01*
X18250000Y3500000D02*
X18750000Y3500000D01*
X18250000Y3900000D02*
X18250000Y3100000D01*
%TO.C,D19*%
X71250000Y31900000D02*
X71650000Y31900000D01*
X71650000Y31900000D02*
X72250000Y32300000D01*
X72250000Y31900000D02*
X72750000Y31900000D01*
X72250000Y31500000D02*
X71650000Y31900000D01*
X72250000Y32300000D02*
X72250000Y31500000D01*
X71650000Y31900000D02*
X71650000Y32450000D01*
X71650000Y31900000D02*
X71650000Y31350000D01*
%TO.C,D2*%
X250000Y12000000D02*
X750000Y12000000D01*
X-350000Y12000000D02*
X-350000Y11450000D01*
X250000Y11600000D02*
X-350000Y12000000D01*
X-350000Y12000000D02*
X-350000Y12550000D01*
X-350000Y12000000D02*
X250000Y12400000D01*
X-750000Y12000000D02*
X-350000Y12000000D01*
X250000Y12400000D02*
X250000Y11600000D01*
%TO.C,D3*%
X250000Y29000000D02*
X750000Y29000000D01*
X-350000Y29000000D02*
X-350000Y29550000D01*
X250000Y29400000D02*
X250000Y28600000D01*
X250000Y28600000D02*
X-350000Y29000000D01*
X-350000Y29000000D02*
X-350000Y28450000D01*
X-350000Y29000000D02*
X250000Y29400000D01*
X-750000Y29000000D02*
X-350000Y29000000D01*
%TD*%
D13*
%TO.C,MCU1*%
X83880000Y30870000D03*
D14*
X83880000Y28330000D03*
X83880000Y25790000D03*
X83880000Y23250000D03*
X83880000Y20710000D03*
X83880000Y18170000D03*
X83880000Y15630000D03*
X83880000Y13090000D03*
X83880000Y10550000D03*
X83880000Y8010000D03*
X83880000Y5470000D03*
X83880000Y2930000D03*
X99120000Y30870000D03*
X99120000Y28330000D03*
X99120000Y25790000D03*
X99120000Y23250000D03*
X99120000Y20710000D03*
X99120000Y18170000D03*
X99120000Y15630000D03*
X99120000Y13090000D03*
X99120000Y10550000D03*
X99120000Y8010000D03*
X99120000Y5470000D03*
X99120000Y2930000D03*
%TD*%
M02*
