%TF.GenerationSoftware,KiCad,Pcbnew,(6.0.0)*%
%TF.CreationDate,2022-02-05T12:05:09+01:00*%
%TF.ProjectId,samoklava2_pcb,73616d6f-6b6c-4617-9661-325f7063622e,v1.0.0*%
%TF.SameCoordinates,Original*%
%TF.FileFunction,Copper,L2,Bot*%
%TF.FilePolarity,Positive*%
%FSLAX46Y46*%
G04 Gerber Fmt 4.6, Leading zero omitted, Abs format (unit mm)*
G04 Created by KiCad (PCBNEW (6.0.0)) date 2022-02-05 12:05:09*
%MOMM*%
%LPD*%
G01*
G04 APERTURE LIST*
G04 Aperture macros list*
%AMRotRect*
0 Rectangle, with rotation*
0 The origin of the aperture is its center*
0 $1 length*
0 $2 width*
0 $3 Rotation angle, in degrees counterclockwise*
0 Add horizontal line*
21,1,$1,$2,0,0,$3*%
G04 Aperture macros list end*
%TA.AperFunction,Profile*%
%ADD10C,0.150000*%
%TD*%
%TA.AperFunction,WasherPad*%
%ADD11C,1.000000*%
%TD*%
%TA.AperFunction,SMDPad,CuDef*%
%ADD12R,2.600000X2.600000*%
%TD*%
%TA.AperFunction,ComponentPad*%
%ADD13C,1.905000*%
%TD*%
%TA.AperFunction,SMDPad,CuDef*%
%ADD14RotRect,0.900000X1.200000X345.000000*%
%TD*%
%TA.AperFunction,ComponentPad*%
%ADD15RotRect,1.778000X1.778000X345.000000*%
%TD*%
%TA.AperFunction,SMDPad,CuDef*%
%ADD16R,0.900000X1.200000*%
%TD*%
%TA.AperFunction,ComponentPad*%
%ADD17R,1.778000X1.778000*%
%TD*%
%TA.AperFunction,ComponentPad*%
%ADD18R,1.752600X1.752600*%
%TD*%
%TA.AperFunction,ComponentPad*%
%ADD19C,1.752600*%
%TD*%
%TA.AperFunction,SMDPad,CuDef*%
%ADD20RotRect,2.600000X2.600000X345.000000*%
%TD*%
%TA.AperFunction,SMDPad,CuDef*%
%ADD21RotRect,0.900000X1.200000X60.000000*%
%TD*%
%TA.AperFunction,ComponentPad*%
%ADD22RotRect,1.778000X1.778000X60.000000*%
%TD*%
%TA.AperFunction,SMDPad,CuDef*%
%ADD23RotRect,2.600000X2.600000X60.000000*%
%TD*%
%TA.AperFunction,ComponentPad*%
%ADD24C,0.457200*%
%TD*%
%TA.AperFunction,ViaPad*%
%ADD25C,0.800000*%
%TD*%
%TA.AperFunction,Conductor*%
%ADD26C,0.250000*%
%TD*%
G04 APERTURE END LIST*
D10*
X101000000Y33900000D02*
G75*
G03*
X99000000Y35900000I-1999999J1D01*
G01*
X101000000Y-12141090D02*
G75*
G03*
X102000000Y-13873141I2000000J0D01*
G01*
X-9000000Y-6500000D02*
G75*
G03*
X-7000000Y-8500000I1999999J-1D01*
G01*
X-9000000Y58232663D02*
X-9000000Y-6500000D01*
X8594465Y67808497D02*
X-7854013Y60041161D01*
X44745899Y62971995D02*
X27267341Y67924253D01*
X46395588Y-22100000D02*
X62441218Y-22100000D01*
X80027025Y62426662D02*
X45264080Y62896431D01*
X40481569Y-9809869D02*
X44518431Y-20790131D01*
X78060291Y-31227935D02*
G75*
G03*
X78096935Y-31249615I1031524J1701695D01*
G01*
X-7000000Y-8500000D02*
X38604412Y-8500000D01*
X27267341Y67924253D02*
G75*
G03*
X26722136Y68000000I-545201J-1924212D01*
G01*
X78096934Y-31249614D02*
X91068878Y-38738969D01*
X26722135Y68000000D02*
X9448477Y68000000D01*
X44518431Y-20790131D02*
G75*
G03*
X46395588Y-22100000I1877157J690130D01*
G01*
X10000000Y8500000D02*
G75*
G03*
X10000000Y8500000I-1000000J0D01*
G01*
X63477862Y-22389629D02*
X78060291Y-31227935D01*
X64000000Y11400000D02*
G75*
G03*
X64000000Y11400000I-1000000J0D01*
G01*
X40481569Y-9809869D02*
G75*
G03*
X38604412Y-8500000I-1877157J-690130D01*
G01*
X99000000Y35900000D02*
X84000000Y35900000D01*
X101000000Y-12141090D02*
X101000000Y33900000D01*
X9448477Y68000000D02*
G75*
G03*
X8594464Y67808497I2J-2000006D01*
G01*
X82000000Y37900000D02*
X82000000Y60426844D01*
X10000000Y51000000D02*
G75*
G03*
X10000000Y51000000I-1000000J0D01*
G01*
X-7854013Y60041161D02*
G75*
G03*
X-9000001Y58232663I854012J-1808497D01*
G01*
X93800928Y-38006919D02*
X105300929Y-18088334D01*
X63477862Y-22389629D02*
G75*
G03*
X62441218Y-22100000I-1036646J-1710378D01*
G01*
X64000000Y45900000D02*
G75*
G03*
X64000000Y45900000I-1000000J0D01*
G01*
X105300929Y-18088334D02*
G75*
G03*
X104568878Y-15356283I-1732051J1000000D01*
G01*
X102000000Y-13873141D02*
X104568878Y-15356284D01*
X44745899Y62971995D02*
G75*
G03*
X45264080Y62896431I545202J1924232D01*
G01*
X82000001Y60426844D02*
G75*
G03*
X80027025Y62426661I-2000001J-1D01*
G01*
X91068878Y-38738969D02*
G75*
G03*
X93800928Y-38006919I1000000J1732050D01*
G01*
X82000000Y37900000D02*
G75*
G03*
X84000000Y35900000I1999999J-1D01*
G01*
D11*
%TO.P,T1,*%
%TO.N,*%
X98000000Y-2600000D03*
X98000000Y-5600000D03*
%TD*%
D12*
%TO.P,S9,1*%
%TO.N,middle_bottom*%
X32725000Y7650000D03*
%TO.P,S9,2*%
%TO.N,P19*%
X44275000Y5450000D03*
%TD*%
%TO.P,S6,1*%
%TO.N,ring_home*%
X14725000Y31450000D03*
%TO.P,S6,2*%
%TO.N,P20*%
X26275000Y29250000D03*
%TD*%
%TO.P,S8,1*%
%TO.N,ring_topmost*%
X14725000Y65450000D03*
%TO.P,S8,2*%
%TO.N,P20*%
X26275000Y63250000D03*
%TD*%
%TO.P,S4,1*%
%TO.N,pinky_topmost*%
X-3275000Y56950000D03*
%TO.P,S4,2*%
%TO.N,P21*%
X8275000Y54750000D03*
%TD*%
D13*
%TO.P,D22,1*%
%TO.N,home_default*%
X76279376Y-22034732D03*
D14*
%TO.N,P16*%
X71005421Y-20621580D03*
D15*
%TO.P,D22,2*%
X68919022Y-20062530D03*
D14*
%TO.N,home_default*%
X74192977Y-21475682D03*
%TD*%
D16*
%TO.P,D15,1*%
%TO.N,P3*%
X52350000Y32400000D03*
D13*
%TO.N,index_top*%
X57810000Y32400000D03*
D17*
%TO.P,D15,2*%
%TO.N,P3*%
X50190000Y32400000D03*
D16*
%TO.N,index_top*%
X55650000Y32400000D03*
%TD*%
%TO.P,D6,1*%
%TO.N,P4*%
X16350000Y20500000D03*
D13*
%TO.N,ring_home*%
X21810000Y20500000D03*
D17*
%TO.P,D6,2*%
%TO.N,P4*%
X14190000Y20500000D03*
D16*
%TO.N,ring_home*%
X19650000Y20500000D03*
%TD*%
D18*
%TO.P,MCU1,1*%
%TO.N,RAW*%
X83880000Y30870000D03*
D19*
%TO.P,MCU1,2*%
%TO.N,GND*%
X83880000Y28330000D03*
%TO.P,MCU1,3*%
%TO.N,RST*%
X83880000Y25790000D03*
%TO.P,MCU1,4*%
%TO.N,VCC*%
X83880000Y23250000D03*
%TO.P,MCU1,5*%
%TO.N,P21*%
X83880000Y20710000D03*
%TO.P,MCU1,6*%
%TO.N,P20*%
X83880000Y18170000D03*
%TO.P,MCU1,7*%
%TO.N,P19*%
X83880000Y15630000D03*
%TO.P,MCU1,8*%
%TO.N,P18*%
X83880000Y13090000D03*
%TO.P,MCU1,9*%
%TO.N,P15*%
X83880000Y10550000D03*
%TO.P,MCU1,10*%
%TO.N,P14*%
X83880000Y8010000D03*
%TO.P,MCU1,11*%
%TO.N,P16*%
X83880000Y5470000D03*
%TO.P,MCU1,12*%
%TO.N,P10*%
X83880000Y2930000D03*
%TO.P,MCU1,13*%
%TO.N,P1*%
X99120000Y30870000D03*
%TO.P,MCU1,14*%
%TO.N,P0*%
X99120000Y28330000D03*
%TO.P,MCU1,15*%
%TO.N,GND*%
X99120000Y25790000D03*
%TO.P,MCU1,16*%
X99120000Y23250000D03*
%TO.P,MCU1,17*%
%TO.N,P2*%
X99120000Y20710000D03*
%TO.P,MCU1,18*%
%TO.N,P3*%
X99120000Y18170000D03*
%TO.P,MCU1,19*%
%TO.N,P4*%
X99120000Y15630000D03*
%TO.P,MCU1,20*%
%TO.N,P5*%
X99120000Y13090000D03*
%TO.P,MCU1,21*%
%TO.N,P6*%
X99120000Y10550000D03*
%TO.P,MCU1,22*%
%TO.N,P7*%
X99120000Y8010000D03*
%TO.P,MCU1,23*%
%TO.N,P8*%
X99120000Y5470000D03*
%TO.P,MCU1,24*%
%TO.N,P9*%
X99120000Y2930000D03*
%TD*%
D13*
%TO.P,D10,1*%
%TO.N,middle_home*%
X39810000Y13700000D03*
D16*
%TO.N,P4*%
X34350000Y13700000D03*
D17*
%TO.P,D10,2*%
X32190000Y13700000D03*
D16*
%TO.N,middle_home*%
X37650000Y13700000D03*
%TD*%
D12*
%TO.P,S21,1*%
%TO.N,near_default*%
X50725000Y-7650000D03*
%TO.P,S21,2*%
%TO.N,P19*%
X62275000Y-9850000D03*
%TD*%
D13*
%TO.P,D16,1*%
%TO.N,index_topmost*%
X57810000Y49400000D03*
D16*
%TO.N,P2*%
X52350000Y49400000D03*
D17*
%TO.P,D16,2*%
X50190000Y49400000D03*
D16*
%TO.N,index_topmost*%
X55650000Y49400000D03*
%TD*%
D13*
%TO.P,D11,1*%
%TO.N,middle_top*%
X39810000Y30700000D03*
D16*
%TO.N,P3*%
X34350000Y30700000D03*
D17*
%TO.P,D11,2*%
X32190000Y30700000D03*
D16*
%TO.N,middle_top*%
X37650000Y30700000D03*
%TD*%
D12*
%TO.P,S19,1*%
%TO.N,innermost_top*%
X68725000Y42850000D03*
%TO.P,S19,2*%
%TO.N,P15*%
X80275000Y40650000D03*
%TD*%
D16*
%TO.P,D17,1*%
%TO.N,P14*%
X70350000Y-2100000D03*
D13*
%TO.N,innermost_bottom*%
X75810000Y-2100000D03*
D17*
%TO.P,D17,2*%
%TO.N,P14*%
X68190000Y-2100000D03*
D16*
%TO.N,innermost_bottom*%
X73650000Y-2100000D03*
%TD*%
D12*
%TO.P,S15,1*%
%TO.N,index_top*%
X50725000Y43350000D03*
%TO.P,S15,2*%
%TO.N,P18*%
X62275000Y41150000D03*
%TD*%
%TO.P,S1,1*%
%TO.N,pinky_bottom*%
X-3275000Y5950000D03*
%TO.P,S1,2*%
%TO.N,P21*%
X8275000Y3750000D03*
%TD*%
D20*
%TO.P,S22,1*%
%TO.N,home_default*%
X72269860Y-9624111D03*
%TO.P,S22,2*%
%TO.N,P18*%
X82856902Y-14738508D03*
%TD*%
D16*
%TO.P,D20,1*%
%TO.N,P2*%
X70350000Y48900000D03*
D13*
%TO.N,innermost_topmost*%
X75810000Y48900000D03*
D16*
%TO.P,D20,2*%
X73650000Y48900000D03*
D17*
%TO.N,P2*%
X68190000Y48900000D03*
%TD*%
D12*
%TO.P,S13,1*%
%TO.N,index_bottom*%
X50725000Y9350000D03*
%TO.P,S13,2*%
%TO.N,P18*%
X62275000Y7150000D03*
%TD*%
%TO.P,S3,1*%
%TO.N,pinky_top*%
X-3275000Y39950000D03*
%TO.P,S3,2*%
%TO.N,P21*%
X8275000Y37750000D03*
%TD*%
D16*
%TO.P,D18,1*%
%TO.N,P4*%
X70350000Y14900000D03*
D13*
%TO.N,innermost_home*%
X75810000Y14900000D03*
D16*
%TO.P,D18,2*%
X73650000Y14900000D03*
D17*
%TO.N,P4*%
X68190000Y14900000D03*
%TD*%
D16*
%TO.P,D7,1*%
%TO.N,P3*%
X16350000Y37500000D03*
D13*
%TO.N,ring_top*%
X21810000Y37500000D03*
D17*
%TO.P,D7,2*%
%TO.N,P3*%
X14190000Y37500000D03*
D16*
%TO.N,ring_top*%
X19650000Y37500000D03*
%TD*%
D13*
%TO.P,D13,1*%
%TO.N,index_bottom*%
X57810000Y-1600000D03*
D16*
%TO.N,P14*%
X52350000Y-1600000D03*
D17*
%TO.P,D13,2*%
X50190000Y-1600000D03*
D16*
%TO.N,index_bottom*%
X55650000Y-1600000D03*
%TD*%
%TO.P,D4,1*%
%TO.N,P2*%
X-1650000Y46000000D03*
D13*
%TO.N,pinky_topmost*%
X3810000Y46000000D03*
D16*
%TO.P,D4,2*%
X1650000Y46000000D03*
D17*
%TO.N,P2*%
X-3810000Y46000000D03*
%TD*%
D13*
%TO.P,D23,1*%
%TO.N,far_default*%
X98424840Y-22998070D03*
D21*
%TO.N,P16*%
X95694840Y-27726569D03*
%TO.P,D23,2*%
%TO.N,far_default*%
X97344840Y-24868685D03*
D22*
%TO.N,P16*%
X94614840Y-29597184D03*
%TD*%
D13*
%TO.P,D21,1*%
%TO.N,near_default*%
X57810000Y-18600000D03*
D16*
%TO.N,P16*%
X52350000Y-18600000D03*
%TO.P,D21,2*%
%TO.N,near_default*%
X55650000Y-18600000D03*
D17*
%TO.N,P16*%
X50190000Y-18600000D03*
%TD*%
D13*
%TO.P,D14,1*%
%TO.N,index_home*%
X57810000Y15400000D03*
D16*
%TO.N,P4*%
X52350000Y15400000D03*
%TO.P,D14,2*%
%TO.N,index_home*%
X55650000Y15400000D03*
D17*
%TO.N,P4*%
X50190000Y15400000D03*
%TD*%
D12*
%TO.P,S7,1*%
%TO.N,ring_top*%
X14725000Y48450000D03*
%TO.P,S7,2*%
%TO.N,P20*%
X26275000Y46250000D03*
%TD*%
%TO.P,S11,1*%
%TO.N,middle_top*%
X32725000Y41650000D03*
%TO.P,S11,2*%
%TO.N,P19*%
X44275000Y39450000D03*
%TD*%
D13*
%TO.P,D9,1*%
%TO.N,middle_bottom*%
X39810000Y-3300000D03*
D16*
%TO.N,P14*%
X34350000Y-3300000D03*
D17*
%TO.P,D9,2*%
X32190000Y-3300000D03*
D16*
%TO.N,middle_bottom*%
X37650000Y-3300000D03*
%TD*%
D12*
%TO.P,S12,1*%
%TO.N,middle_topmost*%
X32725000Y58650000D03*
%TO.P,S12,2*%
%TO.N,P19*%
X44275000Y56450000D03*
%TD*%
D13*
%TO.P,D12,1*%
%TO.N,middle_topmost*%
X39810000Y47700000D03*
D16*
%TO.N,P2*%
X34350000Y47700000D03*
D17*
%TO.P,D12,2*%
X32190000Y47700000D03*
D16*
%TO.N,middle_topmost*%
X37650000Y47700000D03*
%TD*%
D12*
%TO.P,S2,1*%
%TO.N,pinky_home*%
X-3275000Y22950000D03*
%TO.P,S2,2*%
%TO.N,P21*%
X8275000Y20750000D03*
%TD*%
D13*
%TO.P,D1,1*%
%TO.N,pinky_bottom*%
X3810000Y-5000000D03*
D16*
%TO.N,P14*%
X-1650000Y-5000000D03*
%TO.P,D1,2*%
%TO.N,pinky_bottom*%
X1650000Y-5000000D03*
D17*
%TO.N,P14*%
X-3810000Y-5000000D03*
%TD*%
D23*
%TO.P,S23,1*%
%TO.N,far_default*%
X85399362Y-23658860D03*
%TO.P,S23,2*%
%TO.N,P15*%
X93079618Y-14756267D03*
%TD*%
D16*
%TO.P,D8,1*%
%TO.N,P2*%
X16350000Y54500000D03*
D13*
%TO.N,ring_topmost*%
X21810000Y54500000D03*
D17*
%TO.P,D8,2*%
%TO.N,P2*%
X14190000Y54500000D03*
D16*
%TO.N,ring_topmost*%
X19650000Y54500000D03*
%TD*%
D13*
%TO.P,D5,1*%
%TO.N,ring_bottom*%
X21810000Y3500000D03*
D16*
%TO.N,P14*%
X16350000Y3500000D03*
D17*
%TO.P,D5,2*%
X14190000Y3500000D03*
D16*
%TO.N,ring_bottom*%
X19650000Y3500000D03*
%TD*%
%TO.P,D19,1*%
%TO.N,P3*%
X70350000Y31900000D03*
D13*
%TO.N,innermost_top*%
X75810000Y31900000D03*
D16*
%TO.P,D19,2*%
X73650000Y31900000D03*
D17*
%TO.N,P3*%
X68190000Y31900000D03*
%TD*%
D12*
%TO.P,S5,1*%
%TO.N,ring_bottom*%
X14725000Y14450000D03*
%TO.P,S5,2*%
%TO.N,P20*%
X26275000Y12250000D03*
%TD*%
%TO.P,S17,1*%
%TO.N,innermost_bottom*%
X68725000Y8850000D03*
%TO.P,S17,2*%
%TO.N,P15*%
X80275000Y6650000D03*
%TD*%
%TO.P,S20,1*%
%TO.N,innermost_topmost*%
X68725000Y59850000D03*
%TO.P,S20,2*%
%TO.N,P15*%
X80275000Y57650000D03*
%TD*%
%TO.P,S10,1*%
%TO.N,middle_home*%
X32725000Y24650000D03*
%TO.P,S10,2*%
%TO.N,P19*%
X44275000Y22450000D03*
%TD*%
%TO.P,S16,1*%
%TO.N,index_topmost*%
X50725000Y60350000D03*
%TO.P,S16,2*%
%TO.N,P18*%
X62275000Y58150000D03*
%TD*%
D24*
%TO.P,BT1,1*%
%TO.N,RAW*%
X90399600Y35377600D03*
%TO.P,BT1,2*%
%TO.N,Bminus*%
X92600000Y35377600D03*
%TD*%
D12*
%TO.P,S14,1*%
%TO.N,index_home*%
X50725000Y26350000D03*
%TO.P,S14,2*%
%TO.N,P18*%
X62275000Y24150000D03*
%TD*%
D13*
%TO.P,D2,1*%
%TO.N,pinky_home*%
X3810000Y12000000D03*
D16*
%TO.N,P4*%
X-1650000Y12000000D03*
%TO.P,D2,2*%
%TO.N,pinky_home*%
X1650000Y12000000D03*
D17*
%TO.N,P4*%
X-3810000Y12000000D03*
%TD*%
D12*
%TO.P,S18,1*%
%TO.N,innermost_home*%
X68725000Y25850000D03*
%TO.P,S18,2*%
%TO.N,P15*%
X80275000Y23650000D03*
%TD*%
D16*
%TO.P,D3,1*%
%TO.N,P3*%
X-1650000Y29000000D03*
D13*
%TO.N,pinky_top*%
X3810000Y29000000D03*
D16*
%TO.P,D3,2*%
X1650000Y29000000D03*
D17*
%TO.N,P3*%
X-3810000Y29000000D03*
%TD*%
D25*
%TO.N,P21*%
X10668000Y32766000D03*
%TO.N,P20*%
X28956000Y28194000D03*
%TO.N,P19*%
X47752000Y12446000D03*
%TO.N,P18*%
X64770000Y10922000D03*
%TO.N,GND*%
X90932000Y-3810000D03*
%TO.N,RST*%
X89916000Y-1778000D03*
%TO.N,Bminus*%
X94488000Y16002000D03*
X94488000Y18542000D03*
%TD*%
D26*
%TO.N,pinky_bottom*%
X1650000Y-5000000D02*
X3810000Y-5000000D01*
X-3275000Y320677D02*
X1650000Y-4604323D01*
X-3275000Y5950000D02*
X-3275000Y320677D01*
X1650000Y-4604323D02*
X1650000Y-5000000D01*
%TO.N,P21*%
X7790566Y20265566D02*
X8275000Y20750000D01*
X7790566Y38234434D02*
X7790566Y54265566D01*
X8275000Y3750000D02*
X7790566Y4234434D01*
X8275000Y30333000D02*
X8275000Y37750000D01*
X8275000Y37750000D02*
X7790566Y38234434D01*
X8275000Y30373000D02*
X10668000Y32766000D01*
X7790566Y4234434D02*
X7790566Y20265566D01*
X8275000Y20750000D02*
X8275000Y30333000D01*
X8275000Y30333000D02*
X8275000Y30373000D01*
X7790566Y54265566D02*
X8275000Y54750000D01*
%TO.N,P14*%
X-1650000Y-5000000D02*
X-3810000Y-5000000D01*
X52350000Y-1600000D02*
X50190000Y-1600000D01*
X16350000Y3500000D02*
X14190000Y3500000D01*
X70350000Y-2100000D02*
X68190000Y-2100000D01*
X34350000Y-3300000D02*
X32190000Y-3300000D01*
%TO.N,pinky_home*%
X1650000Y12000000D02*
X3810000Y12000000D01*
X-3275000Y22950000D02*
X-3275000Y16925000D01*
X-3275000Y16925000D02*
X1650000Y12000000D01*
%TO.N,P4*%
X-1650000Y12000000D02*
X-3810000Y12000000D01*
X70350000Y14900000D02*
X68190000Y14900000D01*
X52350000Y15400000D02*
X50190000Y15400000D01*
X34350000Y13700000D02*
X32190000Y13700000D01*
X16350000Y20500000D02*
X14190000Y20500000D01*
%TO.N,pinky_top*%
X1650000Y29000000D02*
X3810000Y29000000D01*
X-3275000Y33925000D02*
X1650000Y29000000D01*
X-3275000Y39950000D02*
X-3275000Y33925000D01*
%TO.N,P3*%
X70350000Y31900000D02*
X68190000Y31900000D01*
X-1650000Y29000000D02*
X-3810000Y29000000D01*
X52350000Y32400000D02*
X50190000Y32400000D01*
X34350000Y30700000D02*
X32190000Y30700000D01*
X16350000Y37500000D02*
X14190000Y37500000D01*
%TO.N,pinky_topmost*%
X1650000Y46000000D02*
X3810000Y46000000D01*
X-3275000Y56950000D02*
X-3275000Y50925000D01*
X-3275000Y50925000D02*
X1650000Y46000000D01*
%TO.N,P2*%
X52350000Y49400000D02*
X50190000Y49400000D01*
X-1650000Y46000000D02*
X-3810000Y46000000D01*
X16350000Y54500000D02*
X14190000Y54500000D01*
X34350000Y47700000D02*
X32190000Y47700000D01*
X70350000Y48900000D02*
X68190000Y48900000D01*
%TO.N,ring_bottom*%
X14725000Y14450000D02*
X14725000Y8425000D01*
X14725000Y8425000D02*
X19650000Y3500000D01*
X19650000Y3500000D02*
X21810000Y3500000D01*
%TO.N,P20*%
X27900000Y29250000D02*
X28956000Y28194000D01*
X26275000Y29250000D02*
X27900000Y29250000D01*
X26275000Y12250000D02*
X26275000Y29250000D01*
X26275000Y29250000D02*
X26275000Y46250000D01*
X26275000Y46250000D02*
X26275000Y63250000D01*
%TO.N,ring_home*%
X19650000Y20500000D02*
X21810000Y20500000D01*
X14725000Y31450000D02*
X14725000Y25425000D01*
X14725000Y25425000D02*
X19650000Y20500000D01*
%TO.N,ring_top*%
X19650000Y37500000D02*
X21810000Y37500000D01*
X14725000Y42425000D02*
X19650000Y37500000D01*
X14725000Y48450000D02*
X14725000Y42425000D01*
%TO.N,ring_topmost*%
X19650000Y54500000D02*
X21810000Y54500000D01*
X14725000Y65450000D02*
X14725000Y59425000D01*
X14725000Y59425000D02*
X19650000Y54500000D01*
%TO.N,middle_bottom*%
X33004323Y7650000D02*
X33004323Y781677D01*
X33004323Y781677D02*
X37086000Y-3300000D01*
X37650000Y-3300000D02*
X39810000Y-3300000D01*
X37086000Y-3300000D02*
X37650000Y-3300000D01*
X32725000Y7650000D02*
X33004323Y7650000D01*
%TO.N,P19*%
X44275000Y22450000D02*
X44275000Y39450000D01*
X44275000Y1953000D02*
X44275000Y5450000D01*
X58200479Y-5775479D02*
X52003479Y-5775479D01*
X44275000Y39450000D02*
X44275000Y56450000D01*
X62275000Y-9850000D02*
X58200479Y-5775479D01*
X44275000Y5450000D02*
X44275000Y22450000D01*
X44275000Y8969000D02*
X47752000Y12446000D01*
X44275000Y5450000D02*
X44275000Y8969000D01*
X52003479Y-5775479D02*
X44275000Y1953000D01*
%TO.N,middle_home*%
X37650000Y13700000D02*
X39810000Y13700000D01*
X32725000Y24650000D02*
X32725000Y19020677D01*
X32725000Y19020677D02*
X37650000Y14095677D01*
X37650000Y14095677D02*
X37650000Y13700000D01*
%TO.N,middle_top*%
X37650000Y30700000D02*
X39810000Y30700000D01*
X32725000Y41650000D02*
X32725000Y36020677D01*
X37650000Y31095677D02*
X37650000Y30700000D01*
X32725000Y36020677D02*
X37650000Y31095677D01*
%TO.N,middle_topmost*%
X32725000Y58650000D02*
X32725000Y53020677D01*
X37650000Y48095677D02*
X37650000Y47700000D01*
X37650000Y47700000D02*
X39810000Y47700000D01*
X32725000Y53020677D02*
X37650000Y48095677D01*
%TO.N,index_bottom*%
X54049022Y-1600000D02*
X55650000Y-1600000D01*
X55650000Y-1600000D02*
X57810000Y-1600000D01*
X50725000Y1724022D02*
X54049022Y-1600000D01*
X50725000Y9350000D02*
X50725000Y1724022D01*
%TO.N,P18*%
X62275000Y7150000D02*
X61790566Y7634434D01*
X62275000Y1479000D02*
X62275000Y7150000D01*
X76068253Y-6604000D02*
X70358000Y-6604000D01*
X61790566Y23665566D02*
X62275000Y24150000D01*
X61790566Y57665566D02*
X62275000Y58150000D01*
X61790566Y41634434D02*
X61790566Y57665566D01*
X62275000Y24150000D02*
X62275000Y41150000D01*
X61790566Y7634434D02*
X61790566Y23665566D01*
X64770000Y9645000D02*
X64770000Y10922000D01*
X82856902Y-13392649D02*
X76068253Y-6604000D01*
X62275000Y41150000D02*
X61790566Y41634434D01*
X82856902Y-14738508D02*
X82856902Y-13392649D01*
X62275000Y7150000D02*
X64770000Y9645000D01*
X70358000Y-6604000D02*
X62275000Y1479000D01*
%TO.N,index_home*%
X55650000Y15400000D02*
X57810000Y15400000D01*
X50725000Y20720677D02*
X55650000Y15795677D01*
X55650000Y15795677D02*
X55650000Y15400000D01*
X50725000Y26350000D02*
X50725000Y20720677D01*
%TO.N,index_top*%
X54049022Y32400000D02*
X55650000Y32400000D01*
X55650000Y32400000D02*
X57810000Y32400000D01*
X50725000Y43350000D02*
X50725000Y35724022D01*
X50725000Y35724022D02*
X54049022Y32400000D01*
%TO.N,index_topmost*%
X50725000Y54325000D02*
X55650000Y49400000D01*
X50725000Y60350000D02*
X50725000Y54325000D01*
X55650000Y49400000D02*
X57810000Y49400000D01*
%TO.N,innermost_bottom*%
X68725000Y2845000D02*
X73650000Y-2080000D01*
X68725000Y8850000D02*
X68725000Y2845000D01*
X73650000Y-2080000D02*
X73650000Y-2100000D01*
X73650000Y-2100000D02*
X75810000Y-2100000D01*
%TO.N,P15*%
X80275000Y-3821000D02*
X80275000Y6650000D01*
X93079618Y-14756267D02*
X91210267Y-14756267D01*
X80275000Y23650000D02*
X80275000Y40650000D01*
X80275000Y23650000D02*
X80275000Y6650000D01*
X80275000Y57650000D02*
X80275000Y40650000D01*
X80275000Y6945000D02*
X83880000Y10550000D01*
X91210267Y-14756267D02*
X80275000Y-3821000D01*
X80275000Y6650000D02*
X80275000Y6945000D01*
%TO.N,innermost_home*%
X73650000Y14900000D02*
X75810000Y14900000D01*
X68725000Y25850000D02*
X68725000Y19825000D01*
X68725000Y19825000D02*
X73650000Y14900000D01*
%TO.N,innermost_top*%
X68725000Y42850000D02*
X68725000Y36825000D01*
X73650000Y31900000D02*
X75810000Y31900000D01*
X68725000Y36825000D02*
X73650000Y31900000D01*
%TO.N,innermost_topmost*%
X68725000Y53825000D02*
X73650000Y48900000D01*
X68725000Y59850000D02*
X68725000Y53825000D01*
X73650000Y48900000D02*
X75810000Y48900000D01*
%TO.N,near_default*%
X55650000Y-18204323D02*
X55650000Y-18600000D01*
X50725000Y-7650000D02*
X50725000Y-13279323D01*
X55650000Y-18600000D02*
X57810000Y-18600000D01*
X50725000Y-13279323D02*
X55650000Y-18204323D01*
%TO.N,P16*%
X52350000Y-18600000D02*
X50190000Y-18600000D01*
X95694840Y-27726569D02*
X95694840Y-28517184D01*
X95694840Y-28517184D02*
X94614840Y-29597184D01*
X69478072Y-20621580D02*
X68919022Y-20062530D01*
X71005421Y-20621580D02*
X69478072Y-20621580D01*
%TO.N,home_default*%
X71208414Y-18491119D02*
X74192977Y-21475682D01*
X71208414Y-10685557D02*
X71208414Y-18491119D01*
X75720326Y-21475682D02*
X76279376Y-22034732D01*
X72269860Y-9624111D02*
X71208414Y-10685557D01*
X74192977Y-21475682D02*
X75720326Y-21475682D01*
%TO.N,far_default*%
X97344840Y-24078070D02*
X98424840Y-22998070D01*
X88410502Y-26670000D02*
X95543525Y-26670000D01*
X95543525Y-26670000D02*
X97344840Y-24868685D01*
X85399362Y-23658860D02*
X88410502Y-26670000D01*
X97344840Y-24868685D02*
X97344840Y-24078070D01*
%TO.N,RAW*%
X83880000Y30870000D02*
X85892000Y30870000D01*
X85892000Y30870000D02*
X90399600Y35377600D01*
%TO.N,GND*%
X99120000Y25790000D02*
X99120000Y23250000D01*
X90932000Y-1769386D02*
X88082755Y1079859D01*
X86555520Y2598480D02*
X86555520Y25654480D01*
X90932000Y-3810000D02*
X90932000Y-1769386D01*
X86555520Y25654480D02*
X83880000Y28330000D01*
X83880000Y28330000D02*
X96580000Y28330000D01*
X88082755Y1079859D02*
X88074141Y1079859D01*
X96580000Y28330000D02*
X99120000Y25790000D01*
X88074141Y1079859D02*
X86555520Y2598480D01*
%TO.N,RST*%
X86106000Y2032000D02*
X89916000Y-1778000D01*
X83880000Y25790000D02*
X86106000Y23564000D01*
X86106000Y23564000D02*
X86106000Y2032000D01*
%TO.N,Bminus*%
X94488000Y16002000D02*
X94488000Y18542000D01*
%TD*%
M02*
