%TF.GenerationSoftware,KiCad,Pcbnew,(6.0.0)*%
%TF.CreationDate,2022-02-05T12:05:09+01:00*%
%TF.ProjectId,samoklava2_pcb,73616d6f-6b6c-4617-9661-325f7063622e,v1.0.0*%
%TF.SameCoordinates,Original*%
%TF.FileFunction,Paste,Top*%
%TF.FilePolarity,Positive*%
%FSLAX46Y46*%
G04 Gerber Fmt 4.6, Leading zero omitted, Abs format (unit mm)*
G04 Created by KiCad (PCBNEW (6.0.0)) date 2022-02-05 12:05:09*
%MOMM*%
%LPD*%
G01*
G04 APERTURE LIST*
G04 Aperture macros list*
%AMRotRect*
0 Rectangle, with rotation*
0 The origin of the aperture is its center*
0 $1 length*
0 $2 width*
0 $3 Rotation angle, in degrees counterclockwise*
0 Add horizontal line*
21,1,$1,$2,0,0,$3*%
G04 Aperture macros list end*
%TA.AperFunction,Profile*%
%ADD10C,0.150000*%
%TD*%
%ADD11R,0.900000X0.900000*%
%ADD12R,1.250000X0.900000*%
%ADD13R,1.800000X1.100000*%
%ADD14RotRect,0.900000X1.200000X345.000000*%
%ADD15R,0.900000X1.200000*%
%ADD16RotRect,0.900000X1.200000X60.000000*%
G04 APERTURE END LIST*
D10*
X101000000Y33900000D02*
G75*
G03*
X99000000Y35900000I-1999999J1D01*
G01*
X101000000Y-12141090D02*
G75*
G03*
X102000000Y-13873141I2000000J0D01*
G01*
X-9000000Y-6500000D02*
G75*
G03*
X-7000000Y-8500000I1999999J-1D01*
G01*
X-9000000Y58232663D02*
X-9000000Y-6500000D01*
X8594465Y67808497D02*
X-7854013Y60041161D01*
X44745899Y62971995D02*
X27267341Y67924253D01*
X46395588Y-22100000D02*
X62441218Y-22100000D01*
X80027025Y62426662D02*
X45264080Y62896431D01*
X40481569Y-9809869D02*
X44518431Y-20790131D01*
X78060291Y-31227935D02*
G75*
G03*
X78096935Y-31249615I1031524J1701695D01*
G01*
X-7000000Y-8500000D02*
X38604412Y-8500000D01*
X27267341Y67924253D02*
G75*
G03*
X26722136Y68000000I-545201J-1924212D01*
G01*
X78096934Y-31249614D02*
X91068878Y-38738969D01*
X26722135Y68000000D02*
X9448477Y68000000D01*
X44518431Y-20790131D02*
G75*
G03*
X46395588Y-22100000I1877157J690130D01*
G01*
X10000000Y8500000D02*
G75*
G03*
X10000000Y8500000I-1000000J0D01*
G01*
X63477862Y-22389629D02*
X78060291Y-31227935D01*
X64000000Y11400000D02*
G75*
G03*
X64000000Y11400000I-1000000J0D01*
G01*
X40481569Y-9809869D02*
G75*
G03*
X38604412Y-8500000I-1877157J-690130D01*
G01*
X99000000Y35900000D02*
X84000000Y35900000D01*
X101000000Y-12141090D02*
X101000000Y33900000D01*
X9448477Y68000000D02*
G75*
G03*
X8594464Y67808497I2J-2000006D01*
G01*
X82000000Y37900000D02*
X82000000Y60426844D01*
X10000000Y51000000D02*
G75*
G03*
X10000000Y51000000I-1000000J0D01*
G01*
X-7854013Y60041161D02*
G75*
G03*
X-9000001Y58232663I854012J-1808497D01*
G01*
X93800928Y-38006919D02*
X105300929Y-18088334D01*
X63477862Y-22389629D02*
G75*
G03*
X62441218Y-22100000I-1036646J-1710378D01*
G01*
X64000000Y45900000D02*
G75*
G03*
X64000000Y45900000I-1000000J0D01*
G01*
X105300929Y-18088334D02*
G75*
G03*
X104568878Y-15356283I-1732051J1000000D01*
G01*
X102000000Y-13873141D02*
X104568878Y-15356284D01*
X44745899Y62971995D02*
G75*
G03*
X45264080Y62896431I545202J1924232D01*
G01*
X82000001Y60426844D02*
G75*
G03*
X80027025Y62426661I-2000001J-1D01*
G01*
X91068878Y-38738969D02*
G75*
G03*
X93800928Y-38006919I1000000J1732050D01*
G01*
X82000000Y37900000D02*
G75*
G03*
X84000000Y35900000I1999999J-1D01*
G01*
D11*
%TO.C,T1*%
X99100000Y-7800000D03*
X99100000Y-400000D03*
X96900000Y-400000D03*
X96900000Y-7800000D03*
D12*
X95925000Y-6350000D03*
X95925000Y-3350000D03*
X95925000Y-1850000D03*
%TD*%
D13*
%TO.C,B1*%
X86900000Y-1250000D03*
X93100000Y-1250000D03*
X86900000Y-4950000D03*
X93100000Y-4950000D03*
%TD*%
D14*
%TO.C,D22*%
X71005421Y-20621580D03*
X74192977Y-21475682D03*
%TD*%
D15*
%TO.C,D15*%
X52350000Y32400000D03*
X55650000Y32400000D03*
%TD*%
%TO.C,D6*%
X16350000Y20500000D03*
X19650000Y20500000D03*
%TD*%
%TO.C,D10*%
X34350000Y13700000D03*
X37650000Y13700000D03*
%TD*%
%TO.C,D16*%
X52350000Y49400000D03*
X55650000Y49400000D03*
%TD*%
%TO.C,D11*%
X34350000Y30700000D03*
X37650000Y30700000D03*
%TD*%
%TO.C,D17*%
X70350000Y-2100000D03*
X73650000Y-2100000D03*
%TD*%
%TO.C,D20*%
X70350000Y48900000D03*
X73650000Y48900000D03*
%TD*%
%TO.C,D18*%
X70350000Y14900000D03*
X73650000Y14900000D03*
%TD*%
%TO.C,D7*%
X16350000Y37500000D03*
X19650000Y37500000D03*
%TD*%
%TO.C,D13*%
X52350000Y-1600000D03*
X55650000Y-1600000D03*
%TD*%
%TO.C,D4*%
X-1650000Y46000000D03*
X1650000Y46000000D03*
%TD*%
D16*
%TO.C,D23*%
X95694840Y-27726569D03*
X97344840Y-24868685D03*
%TD*%
D15*
%TO.C,D21*%
X52350000Y-18600000D03*
X55650000Y-18600000D03*
%TD*%
%TO.C,D14*%
X52350000Y15400000D03*
X55650000Y15400000D03*
%TD*%
%TO.C,D9*%
X34350000Y-3300000D03*
X37650000Y-3300000D03*
%TD*%
%TO.C,D12*%
X34350000Y47700000D03*
X37650000Y47700000D03*
%TD*%
%TO.C,D1*%
X-1650000Y-5000000D03*
X1650000Y-5000000D03*
%TD*%
%TO.C,D8*%
X16350000Y54500000D03*
X19650000Y54500000D03*
%TD*%
%TO.C,D5*%
X16350000Y3500000D03*
X19650000Y3500000D03*
%TD*%
%TO.C,D19*%
X70350000Y31900000D03*
X73650000Y31900000D03*
%TD*%
%TO.C,D2*%
X-1650000Y12000000D03*
X1650000Y12000000D03*
%TD*%
%TO.C,D3*%
X-1650000Y29000000D03*
X1650000Y29000000D03*
%TD*%
M02*
